<?xml version="1.0" encoding="UTF-8"?>
<svg id="Layer_2" data-name="Layer 2" xmlns="http://www.w3.org/2000/svg" xmlns:xlink="http://www.w3.org/1999/xlink" viewBox="0 0 595.27 986.71">
  <defs>
    <style>
      .cls-1 {
        fill: url(#linear-gradient-2);
      }

      .cls-2 {
        fill: none;
      }

      .cls-3 {
        fill: url(#linear-gradient-4);
      }

      .cls-4 {
        fill: url(#linear-gradient-3);
      }

      .cls-5 {
        clip-path: url(#clippath-1);
      }

      .cls-6 {
        fill: #212829;
      }

      .cls-7 {
        clip-path: url(#clippath-3);
      }

      .cls-8 {
        clip-path: url(#clippath-2);
      }

      .cls-9 {
        fill: url(#linear-gradient);
      }

      .cls-10 {
        clip-path: url(#clippath);
      }
    </style>
    <clipPath id="clippath">
      <polygon class="cls-2" points="139.22 52.64 84.79 52.64 89.91 60.89 118.73 60.89 116.82 62.8 97.92 62.8 99.93 64.81 117.69 64.81 117.69 64.78 121.58 60.89 147.98 60.89 156.27 52.64 156.17 52.64 191.87 16.95 191.86 5.28 144.5 52.64 142.07 52.64 191.86 2.84 191.86 0 139.22 52.64"/>
    </clipPath>
    <linearGradient id="linear-gradient" x1="-121.99" y1="714.83" x2="-120.45" y2="714.83" gradientTransform="translate(491914.11 -482713.86) rotate(35.85) scale(950.31)" gradientUnits="userSpaceOnUse">
      <stop offset="0" stop-color="#e4c592"/>
      <stop offset=".71" stop-color="#bda57c"/>
      <stop offset=".86" stop-color="#9f8b69"/>
      <stop offset="1" stop-color="#76684e"/>
    </linearGradient>
    <clipPath id="clippath-1">
      <polygon class="cls-2" points="421.56 948.13 417.67 952.02 403.51 952.02 395.21 960.27 395.31 960.27 385.87 969.71 385.87 981.38 406.97 960.27 409.42 960.27 385.87 983.82 385.87 986.66 412.26 960.27 463.49 960.27 455.24 952.02 420.51 952.02 422.42 950.11 453.33 950.11 451.32 948.11 421.56 948.1 421.56 948.13"/>
    </clipPath>
    <linearGradient id="linear-gradient-2" x1="-122.37" y1="715.35" x2="-120.95" y2="715.35" gradientTransform="translate(680235.21 116025.16) rotate(90) scale(950.31)" xlink:href="#linear-gradient"/>
    <clipPath id="clippath-2">
      <path class="cls-2" d="M592.47,63.39h-45.39l-11.04-11.03h-68.16s-7.88,7.88-7.88,7.88h74.93l3.15,3.15h-9.25v-.03h-77.31l-46.41-46.41h3l43.65,43.65,8.25-8.25-47.07-47.07h-19.5l-5.28-5.28h-181.7v2.84h180.43l2.44,2.44h-182.89v11.67h194.56l49.26,49.26h78.58v-.02h46.58v841.25l12.73-12.79V66.19h4.34v835.31l-46.61,46.61h-78.52s8.3,8.25,8.3,8.25h61.97l-1.9,1.91h-59.64l-10.15-10.16h-2.85s12.17,12.17,12.17,12.17h62.42s3.92-3.92,3.92-3.92h13.47s33.1-33.1,33.1-33.1h0s0,0,0,0v-13.46l7.13-7.13h0s0,0,0,0V63.39h-2.8M568.1,939.33l-8.77,8.77h-9.51l18.29-18.29v9.52ZM585.34,922.1l-14.44,14.44v-9.52l14.44-14.44v9.52Z"/>
    </clipPath>
    <linearGradient id="linear-gradient-3" x1="-122.42" y1="714.7" x2="-120.96" y2="714.7" gradientTransform="translate(-303973.7 618633.09) rotate(35.85) scale(950.31 -950.31)" xlink:href="#linear-gradient"/>
    <clipPath id="clippath-3">
      <path class="cls-2" d="M327.07,984.7l-1.91-1.91h48.68l-8.25-8.25h-48.68l-25.01-25.01-2.8-2.8H110.24l-12.3-12.3h0s0,0,0,0H19.86V105.48s-12.73,12.79-12.73,12.79v822.51h88.16l5.94,5.95H2.8V111.42l46.61-46.61h35.82s-8.3-8.25-8.3-8.25h-19.28l1.9-1.9h16.95l10.15,10.15h2.85s-12.17-12.16-12.17-12.16h-19.73s-3.92,3.92-3.92,3.92h-13.47S7.13,89.66,7.13,89.66h0s0,0,0,0v13.46L0,110.26h0s0,0,0,0v839.26h104.04l15.87,15.87h0s0,0,0,0h156.32l12.73-12.73H116.18l-3.14-3.15h176.01l25.01,25.01h-2.44l-16.51-16.51-5.83,5.84,18.87,18.92h14.16l3.89,3.89v.03h45.63s2.01-2.01,2.01-2.01h-46.77M27.17,73.58l8.77-8.77h9.52l-18.29,18.29v-9.52ZM9.93,90.81l14.44-14.44v9.52l-14.44,14.44v-9.52Z"/>
    </clipPath>
    <linearGradient id="linear-gradient-4" x1="-122.46" y1="714.93" x2="-120.94" y2="714.93" gradientTransform="translate(-304226.37 618982.73) rotate(35.85) scale(950.31 -950.31)" xlink:href="#linear-gradient"/>
  </defs>
  <g id="Layer_1-2" data-name="Layer 1">
    <g class="cls-10">
      <polygon class="cls-9" points="54.02 42.58 147.09 109.83 222.63 22.23 117.33 -45.02 54.02 42.58"/>
    </g>
    <g class="cls-5">
      <rect class="cls-1" x="386.32" y="924.63" width="76.71" height="85.49" transform="translate(-608.14 744.98) rotate(-54.15)"/>
    </g>
    <g class="cls-8">
      <polygon class="cls-4" points="69.97 -524.92 978.03 430.61 265.68 1416.36 -188.56 529.67 69.97 -524.92"/>
    </g>
    <g class="cls-7">
      <polygon class="cls-3" points="-239.41 -390.52 744.16 474.25 53.59 1429.87 -370.32 565.09 -239.41 -390.52"/>
    </g>
    <g>
      <path class="cls-6" d="M309.2,62.26c0-1.35-.83-1.55-.95-1.57h4.09c-.11.02-.9.2-.9,1.52v2.99c-1.07.44-2.63.65-3.88.65-3.65,0-5.51-2.66-5.51-5.43,0-2.98,2.04-5.94,6.15-5.94,1.66,0,2.74.44,3.15.65v2.82c-.47-.9-1.52-1.86-3.31-1.86-2.05,0-3.52,1.63-3.52,4.03s1.45,4.08,3.46,4.08c.49,0,.88-.1,1.22-.21v-1.73Z"/>
      <path class="cls-6" d="M293.48,56.6c0-1.61-.8-1.84-.96-1.87h5.01c2.28,0,3.57,1.57,3.57,3.31,0,1.97-1.44,3.55-3.96,3.55-.52,0-1.09-.08-1.45-.2v2.38c0,1.61.8,1.79.95,1.81h-4c.11,0,.85-.15.85-1.81v-7.18ZM295.68,59.9c.31.1.78.18,1.21.18,1.17,0,1.83-.82,1.83-1.97,0-1.09-.69-1.89-1.94-1.89h-1.09v3.69Z"/>
      <path class="cls-6" d="M283.05,56.62c0-1.65-.86-1.86-1-1.89h4.78c2.56,0,3.85,1.57,3.85,3.18,0,1.48-.96,2.77-2.66,3,.28.16.57.51.81.95l1.45,2.51c.62,1.08,1.26,1.21,1.42,1.22h-3.31l-1.81-3.34c-.39-.73-.65-.93-1.08-.93h-.23v2.46c0,1.6.7,1.79.83,1.81h-3.93c.11-.02.86-.16.86-1.81v-7.16ZM286.41,59.85c1.39,0,1.94-.91,1.94-1.88,0-.91-.65-1.76-1.96-1.76h-1.13v3.64h1.14Z"/>
      <path class="cls-6" d="M374.55,45.36c-1.95-4.27-4.01-8.51-5.76-12.86-.66-1.64-1.5-2.38-2.96-2.36l7.64,17.58h2.26c-.43-.79-.85-1.65-1.17-2.36"/>
      <path class="cls-6" d="M339.35,57.48l.49-.85c-1.32-.21-2.66-.51-3.99-.82l.97,1.67h2.53Z"/>
      <path class="cls-6" d="M339.69,57.67l.85,1.47c1.05.21,2.06.35,2.99.39h.21s1.06-1.83,1.06-1.83l-.42-.73c-1.35.04-2.72-.07-4.12-.28l-.57.98Z"/>
      <path class="cls-6" d="M345.1,57.96l-.91,1.58c.95-.03,2.27-.17,3.45-.33.22-.03.44-.07.66-.11l-.66-1.14h-2.54Z"/>
      <path class="cls-6" d="M336.81,57.87l-.18.31c1.15.33,2.29.62,3.39.86l-.67-1.17h-2.54Z"/>
      <path class="cls-6" d="M345.79,56.86c-.33.04-.65.07-.99.09l.36.62h2.54l.85-1.47c-.88.37-1.8.65-2.76.77"/>
      <path class="cls-6" d="M318.13,59.78c-.22-.8.21-1.9,1.32-2.8l-.64-1.11c-1.49,1.21-2.19,2.78-2.27,4.06h1.65l-.06-.16Z"/>
      <path class="cls-6" d="M323.93,55.43l.08-.14-.71-1.24c-1.76.23-3.13.82-4.17,1.57l.64,1.12c.96-.66,2.34-1.18,4.16-1.31"/>
      <path class="cls-6" d="M351.86,55.2l1.27-2.2h0c-.85.79-1.8,1.56-2.84,2.2h1.58Z"/>
      <path class="cls-6" d="M332.32,55.25l-.19-.33c-1.42-.32-2.83-.61-4.22-.78l-.65,1.13.24.42c1.24.23,2.59.59,3.99.98l.82-1.43Z"/>
      <path class="cls-6" d="M349.61,55.58c-.14.07-.28.15-.41.21l-1.15,1.99.7,1.21c1.45-.35,2.81-.98,4-1.88l-.89-1.53h-2.25Z"/>
      <path class="cls-6" d="M324.32,55.06h2.61l.56-.97c-1.04-.12-2.07-.17-3.07-.13-.24,0-.48.03-.7.05l.61,1.05Z"/>
      <path class="cls-6" d="M318.7,60.47l-.2-.14h-1.96c.02.41.1.79.25,1.1.81,1.09,1.95,1.2,3.01.94l-1.1-1.9Z"/>
      <path class="cls-6" d="M372.46,47.73l-7.59-17.48c-.39.08-.63.21-.8.67-1.39,3.63-2.55,7.26-3.95,10.89-.79,2.07-1.53,4.08-2.75,5.93,0,0-1.47,2.56-3.95,4.98l.16.28-1.38,2.4.86,1.49c2.92-2.32,7.47-6.52,9.24-11.35h0c.22-.5.41-1.01.57-1.53h4.36c1.71,0,2.13.34,2.23,2.04.03.49-.22,1.2-.35,1.7h3.34ZM363.54,41.17c.68-1.84,1.33-3.58,2.05-5.53.76,1.96,1.43,3.7,2.14,5.53h-4.19Z"/>
      <polygon class="cls-6" points="332.66 55.06 332.73 55.06 332.65 55.04 332.66 55.06"/>
      <path class="cls-6" d="M326.91,55.45h-1.12c.39.04.79.09,1.21.16l-.09-.16Z"/>
      <path class="cls-6" d="M332.69,55.45l-.78,1.35c1.41.41,2.87.85,4.32,1.27l.24-.41-1.14-1.98c-.32-.08-.64-.15-.97-.23h-1.67Z"/>
      <path class="cls-6" d="M322.62,60.94s-1.98.2-3.32-.21l.89,1.53c1.33-.43,2.44-1.32,2.44-1.32"/>
      <path class="cls-6" d="M355.72,30.2v12.28c0,.25-.21.46-.46.46s-.46-.21-.46-.46v-12.28h-2.54c.24.05,1.45.37,1.45,2.9v7.45l-8.27-10.35h-5.58c.19.08,2.4,1.08,2.4,3.11v11.56c0,2.61-1.16,2.84-1.34,2.87h5.85c-.26-.03-1.58-.34-1.58-2.87v-8.92l5.87,7.16c2.16,2.63,2.82,4.63,2.82,4.63h2.74v-14.64c0-2.61,1.18-2.87,1.37-2.9h-2.26Z"/>
      <path class="cls-6" d="M330.38,30.19l-.64.07c-.39.08-.63.21-.8.66-1.39,3.63-2.55,7.26-3.95,10.89-.77,2-2.62,5.93-2.62,5.93h1.58s6.44-17.55,6.44-17.55Z"/>
      <path class="cls-6" d="M339.43,45.37c-1.95-4.27-4.01-8.51-5.76-12.86-.55-1.38-1.24-2.12-2.31-2.31l-6.43,17.53h1.35s.65-1.52.9-2.2h0c.22-.5.41-1,.57-1.53h4.36c1.71,0,2.13.34,2.23,2.04.03.49-.22,1.2-.34,1.7h6.61c-.43-.79-.85-1.65-1.18-2.36M328.42,41.18c.68-1.84,1.33-3.58,2.05-5.53.76,1.96,1.43,3.7,2.14,5.53h-4.19Z"/>
      <path class="cls-6" d="M316.73,45.55c-3.32,0-5.39-2.84-5.39-6.53s2.13-6.39,5.31-6.39c2.47,0,4.18,1.4,5,3.45v-2.73c-1.29-.98-2.89-1.57-4.63-1.57s-3.21.54-4.47,1.44c-.17.12-.4.1-.54-.05-.19-.19-.16-.49.05-.65,1.39-1.01,3.11-1.6,4.96-1.6,1.71,0,3.3.51,4.63,1.37v-1.28c-.84-.45-2.42-1.03-4.71-1.03-6.34,0-9.55,4.71-9.55,9.52,0,4.53,2.84,8.79,8.87,8.79,2.32,0,4.5-1.03,5.73-2.45v-3.03c-1.31,1.68-3.39,2.71-5.26,2.71"/>
      <path class="cls-6" d="M294.45,33.25v11.56c0,2.66-1.21,2.9-1.4,2.92h2.51v-17.53h-2.72c.21.05,1.61.39,1.61,3.05"/>
      <path class="cls-6" d="M298.06,44.81v-3.97h.37c.69,0,1.11.32,1.74,1.5l2.92,5.4h5.35c-.26-.03-1.29-.24-2.29-1.97l-2.34-4.06c-.39-.71-.87-1.26-1.32-1.53,2.74-.37,4.29-2.45,4.29-4.84,0-2.61-2.08-5.13-6.21-5.13h-4.07v17.53h2.91c-.21-.03-1.34-.34-1.34-2.92M298.03,32.59h1.82c2.11,0,3.16,1.37,3.16,2.84,0,1.55-.89,3.03-3.13,3.03h-1.84v-5.87Z"/>
      <path class="cls-6" d="M291.27,45.36c-1.95-4.27-4.01-8.51-5.76-12.86-.64-1.6-1.47-2.34-2.87-2.36l5.1,11.85c.1.23,0,.5-.23.6-.23.11-.51,0-.61-.24l-5.21-12.12h-.09c-.39.09-.63.22-.8.67-1.39,3.63-2.55,7.26-3.95,10.89-.77,2-2.62,5.93-2.62,5.93h3.91s.65-1.52.9-2.2h0c.22-.5.41-1.01.57-1.54h4.36c1.71,0,2.13.34,2.23,2.04.03.49-.22,1.2-.34,1.7h6.61c-.43-.79-.85-1.65-1.17-2.36M280.26,41.16c.68-1.84,1.33-3.58,2.05-5.53.76,1.96,1.43,3.7,2.14,5.53h-4.19Z"/>
      <path class="cls-6" d="M270.83,33.09v7.45l-8.27-10.35h-2.02l13.18,15.32v-12.43c0-2.61,1.18-2.87,1.37-2.9h-5.71c.24.05,1.45.37,1.45,2.9"/>
      <path class="cls-6" d="M259.34,30.2h-2.36c.19.08,2.4,1.08,2.4,3.11v11.56c0,2.61-1.16,2.84-1.34,2.87h5.85c-.26-.03-1.58-.34-1.58-2.87v-8.92l5.87,7.16c2.16,2.63,2.82,4.63,2.82,4.63h2.74v-.81l-14.35-16.68-.03-.05Z"/>
      <path class="cls-6" d="M251.56,33.17v8.37c0,2.66-.92,4-3.48,4s-3.63-1.05-3.63-4v-8.48c0-2.61,1.16-2.84,1.34-2.87h-2.81v11.45c0,.25-.21.46-.46.46s-.46-.21-.46-.46v-11.45h-2.78c.24.05,1.37.34,1.37,2.95v8.56c0,4.27,2.19,6.42,7.22,6.42,4.26,0,6.87-1.92,6.87-6.69v-8.27c0-2.68,1.29-2.95,1.47-2.97h-6.19c.26.05,1.53.37,1.53,2.97"/>
      <path class="cls-6" d="M260.62,57.44l-.38-.66.87-1.51c.99-.24,1.97-.46,2.95-.66l.92,1.6c-1.4.36-2.87.8-4.36,1.24"/>
      <path class="cls-6" d="M273.14,55.88c-.83-.27-1.82-.45-2.96-.48-.07,0-.15,0-.23,0-.22,0-.45,0-.69.02l.54-.93h2.53l.8,1.39Z"/>
      <path class="cls-6" d="M271.71,54.1h-1.91l-.09-.16c.2,0,.39,0,.59.01.5.02.96.07,1.41.14"/>
      <path class="cls-6" d="M265.4,56.09l-.91-1.58c1.62-.32,3.21-.54,4.75-.57l.21.36-.66,1.15c-1.03.11-2.18.34-3.39.63"/>
      <path class="cls-6" d="M277.25,62.07l-.36-.62,1.21-2.09c.16.8.09,1.53-.17,2.06-.21.28-.44.49-.68.65"/>
      <path class="cls-6" d="M254.94,58.98h-1.71l-1.17-2.03c1.54-.09,3.11-.35,4.69-.67l.29.5-1.14,1.98c-.32.08-.64.15-.96.22"/>
      <path class="cls-6" d="M276.56,61.26h-2.54l-.17-.29c1.15-.06,2.5-.32,2.74-1.19.23-.84-.25-2-1.48-2.92h1.45l1.27,2.2-1.27,2.2Z"/>
      <path class="cls-6" d="M275.83,62.48c-.69,0-1.39-.22-2-.5l.19-.33h2.53l.35.61c-.35.15-.71.22-1.08.22"/>
      <path class="cls-6" d="M256.42,58.63l.94-1.63h2.54l.32.56c-1.27.38-2.55.75-3.8,1.07"/>
      <path class="cls-6" d="M276.56,56.47h-2.05c-.25-.14-.51-.27-.8-.39l-1.03-1.79c1.72.44,2.99,1.24,3.88,2.17"/>
      <path class="cls-6" d="M259.89,56.61h-2.51l-.24-.42c1.15-.25,2.3-.52,3.45-.8l-.7,1.22Z"/>
      <path class="cls-6" d="M243.32,56.52l.87-1.51c-2.8-1.83-5-4.54-6.2-6.22-.61-.85-1.1-1.78-1.47-2.75-.65-1.71-1.84-4.75-2.51-5.99.19-.08.54-.2.88-.35,1.44-.65,2.34-1.74,2.67-3.28.62-2.93-1.08-5.72-4.16-6.1-2.14-.26-4.31-.26-6.48-.25v17.2h2.82c-1.01-1.44-1.32-3.67-.89-6.22.89-.18,1.21.42,1.55.98l1.67,3.23c.11.22.21.44.3.67,1.59,3.85,5.98,8.22,8.85,10.59h2.1ZM231.47,37.8c-.85.19-1.75.17-2.66.25v-5.23c.92.08,1.79.07,2.62.25,1.09.24,1.73,1.15,1.75,2.26.02,1.19-.62,2.24-1.7,2.48"/>
      <path class="cls-6" d="M273.48,61.81c-.81-.42-1.37-.87-1.37-.87,0,0,.48.05,1.13.05h.16l.28.49-.2.34Z"/>
      <path class="cls-6" d="M247.48,58.89h-1.91c-.26-.07-.52-.16-.77-.25l-1.13-1.95.85-1.47c1.28.79,2.67,1.38,4.15,1.61l-1.19,2.07Z"/>
      <path class="cls-6" d="M250.81,59.54c-.75,0-1.81-.1-2.85-.22l-.11-.19,1.23-2.13h2.54l1.27,2.19-.11.19c-.54.08-1.07.13-1.58.15-.12,0-.25.01-.39.01"/>
      <path class="cls-6" d="M244.19,58.4c-.86-.37-1.67-.85-2.41-1.43l-.08-.06h1.62l.86,1.49Z"/>
      <path class="cls-6" d="M223.74,30.17c1.02.76,1.26,1.86,1.27,3.03.01,3.51,0,7.01.01,10.52,0,1.26-.04,2.5-1.04,3.55h2.02v-17.21c-.71,0-1.42,0-2.12-.02l-.13.12Z"/>
      <path class="cls-6" d="M203.39,62.51c.38-1.74,1.29-2.36,1.73-2.47.44-.11,2.17-.36,2.42-1.64.25-1.28.06-2.67.04-3.37-.02-.71.13-2.13.13-2.13,0,0-.14.86-.74,1.02-.11.38-.35.6-.42.66h0s0,0,0,0c-.09.08-1.73,1.42-2.62,1.92.24.06.56.25.8.75.39.83-.9,2.47-.9,2.47,0,0-.31.53-.75,1.38-.44.86-.36,1.47-.36,1.47h-.36s-.35,1.07-.35,1.07c-.02.07-.09.51-.34.72-.25.21-.5.14-.82,0-.32-.13-.9-.68-.9-.68l.1.07-.08-.06c-.3-.22-.57-.54-.79-.89l-.06.11.09.21.46.59.44.98c.06.09.23.19.6.16.37-.03,1.15.15,1.15.15.27-.2,1.21-1.02,1.54-2.5"/>
      <path class="cls-6" d="M203.35,51.11c.12-.51.91-1.6.24-1.28-.46.22-.41.38-.48.41-.26.32-.69.86-.74.9-.08.07-.72.65-.89.76-.17.11-1.02.78-1.14.93-.12.15-.42.41-.67.8-.25.39-.73,1.35-.77,1.45-.04.1-.32.7-.36,1.16-.04.46-.08,1.28-.03,1.41.04.1.06.33.13.48.1,0,.34.05.64-.03.34-.09.79-.6.86-.66l.45.36c.54.57,1.56-.29,2.07-.76,0,0,.65-2.41.69-3.64.04-1.23-.13-1.79,0-2.3"/>
      <path class="cls-6" d="M188.46,64.16c.81,1.24,2.02,2.33,3.31,2.86l.33.14c-1.14-.51-1.91-1.26-3.31-2.62-.12-.12-.23-.24-.34-.37"/>
      <path class="cls-6" d="M190.68,65.33c1.58,1.23,3.64,1.15,3.64,1.7,0,.14-.01.26-.03.35.12-.24.19-.66.15-1.34-.12-2.23-.69-3.11-.69-3.11l-.71-.34c.1-.17,0-.65-.11-1.07-.52-.21-2.93-1.24-4.73-3.2,0,0-1-1.09-1.02-1.56,0,0,2.88,3.39,5.57,4.18l-.04-.11h.03c-1.23-.41-3.51-1.88-5.61-4.25,0,0-.86,2.63-.06,4.43l.39.76c-.22-1.49.1-2.88.15-3.22.08-.54.17-.47.33-.4.16.07.66,1.19.66,1.19-1-1.35-.76,1.28-.7,2.25.34,1.07,1.2,2.5,2.77,3.72"/>
      <path class="cls-6" d="M203.4,41.05s9.01-15.26,9.11-15.59c0,0,1.64-4.51,1.22-4.84-1.54,1.16-3.81,3.36-6.53,7.49,0,0-.43.87-.7.15v-.04c.05,1.12.26,1.13.85,1.51.74.48-.73.6-1.31-.27-.58-.88.22-4.63.7-5.43.42-.69.65-.94.41-.82-.89.49-2.75,1.64-3.72,3.22-1.21,1.97-1.52,3.3-1.76,3.46-.17.66-.31,1.37-.32,2.07-.04,2.22-.19,4.61-.27,5.68-.08,1.07-.53,3.07-.61,4.41-.08,1.34-.69,1.91-.83,2.12-.14.22-.45,1.47-.57,1.95-.12.48-.92,1.21-.92,1.21,0,0-.32.96-.63,1.39-.31.42-1.38.76-1.5.82l-.52-.08c-.03.12-.17.43-.36.68-.19.25-.65.66-1.01.83-.37.17-.67-.26-.67-.26,1.19.65,1.9-1.69,1.9-1.69.67.27.93.2,1.16.04-.15.03-.32.01-.48-.04-.49-.18-.74-.72-.56-1.2.18-.49.72-.74,1.2-.56.48.18.74.71.57,1.19.35-.48.62-1.29.62-1.29,1.1-.54.95-1.92,1.24-2.46.29-.54.59-2.41.8-3.28.21-.87.94-6.86.94-6.86-.78-2.67.4-5.4.21-5.97-.2-.58-1.56,1.84-1.56,1.84v-.07c-.05.14-.11.28-.17.42-.95,2.41-3.47,6.72-3.64,6.98-.17.26-1.45,1.83-2.18,2.49l-.03.06v-.02s.25.13.27.29c.01.1-.1.31-.22.5-.09.13-.18.25-.25.32-.17.16-.56.91-.65,1.14-.09.23-.45.35-.55.59-.1.24-.6,1.06-.72,1.19l-.17.11c-.21.1-.54.19-.69.1-.19-.12.08-.38.08-.38,0,0,.38-.22.09,0-.28.22-.05.27-.05.27.16.03.32-.03.46-.14-.27-.53-.33-1.16-.11-1.77.36-.99,1.35-1.57,2.35-1.45.35-.45.14-.62.14-.62v-.1s-.32.66-.32.66c0,0-1.05-.23-1.91.86-.86,1.09-.48,2.18-.48,2.18,0,0-.32.13-.4.35-.08.22-.18.52-.28.85-.1.33-.78,1.95-.84,2.03l.07.59.06.57c-.04.08-.27.58-.08,1.04l.19.46s-.69.36-1.3,1.62c-.61,1.26-.62,2.2.21,3.21,0,0,.37-1.16,1.13-1.74,0,0-.46,1.7,1.17,3.29,0,0,.12.1.26-.66.14-.77.55-1.28.55-1.28l.3.66s-.48.54-.79,1.07c-.3.53-.6,1.58-.52,1.95.02.09-.07,1.26.51,1.38.57.12.46-1.2,2.76-2.87,0,0,1.39.62,1.69-.48,0,0,.16-.09.12.17-.04.26-.52,1.67-.79,2.02-.27.35-1.63,2.25-2.05,2.57.08-.03.29-.13.43-.29.18-.2.13-.08.32.16.18.23.39,1.34.4,1.71.09-.2.21-.35.36-.21.08.07.18.29.3.59.54-.58,1.74-2.48,2.12-3.36.41-.96.8-2.64.82-2.75.01-.11-.54-1.74-.76-2.27-.21-.53-.43-.67-.51-.32-.06.28-.44,1.07-.59,1.36-.02.21-.07.32-.1.4-.06.15-.2.4-.52.71-.32.31-1.08-.1-1.08-.1.9.06,1.04-.26,1.09-.91.06-.65-.45-2.93-.45-2.93,0,0,.82,1.09.98,1.97l.04.29c.18-.41.51-1.05.59-1.21.11-.23.33-.01.65.24.32.25.87,2.14.95,2.68.08.53-.83,3.04-.83,3.04h-.15c-.09-.07-.16-.06-.23.07-.07.13-.05.51-.05.51l-1.88,2.84-.03-.02c.35,1.02.76,2.64.76,3,0,.51-.1,1.96-.43,2.03-.33.07-.73.43-1.03.24-.3-.19-.79-.75-.42-.67,0,0,.17.1.36.08-.56-.12-1.03-.26-1.44-.41.86.35.77.33.77.33l.03.17c.07.1.46.72.7.76.24.04,2.16.17,3.17-.19,1.01-.35,1.94-.8,2.53-1.33.59-.52,1.13-.79.64-1.11-.49-.32-1.15-.64-1.09-.92.06-.28.23-1.11.26-1.17l.23.18-.13-.27c-.12-.14-.53-.71-.55-.83,0,0-2.28-1.14-2.4-3.18.08-.42.17.11,1.66.76.04.08-.87-.32-1.29-.55l-.19.13c.05.32.27.91.9,1.58.91.96,1.31,1.25,1.31,1.25l.13-.15c-.57-.9-.88-1.98-.9-2.13-.03-.29.29.06.29.06h-.03s-.14.21-.14.21c.53,1.78,1.68,2.57,2.24,2.98.26.16.54.31.68.31.31,0,.58-.8.62-1.12.04-.3-.51-1.1-.61-1.26-.78.29-1.44-.32-1.44-.32.96.33,1.32.22,1.84-.17.51-.39,1.08-1.52,1.09-1.63,0-.11.13-.88.26-1.36.14-.48-.13-.57-.39-.54-.26.02-.35.03-.2-.07.15-.1.54-.05.8.05.26.1.16.14-.04.49-.2.35-.25,1.42-.3,1.57-.06.14-.67,1.55-1.5,1.94.15,0,.2.08.47.54.33.56.56-.29.56-.29,0,0,.3-1.13.72-1.71.43-.59,1.05-1.97,1.09-2.19.05-.22.11-.61-.11-.89-.22-.27-.62-.2-.83-.15-.21.05-1.46.93-1.83,1.15-.37.22-.56.08-.74,0-.18-.08-.56-.11-.91.11-.35.22-.38.18-.49.17l-.51.17v.03c-.06.14-.03.51-.04.56-.01.04-.04.21-.02.39.02.18.08.55.37.92l.09.12c-.07-.14-.12-.31-.14-.51l-.06-.43s.44,1.5.76.97c.07-.31.18-.8.17-1,0,0,.21.62.36.9l-.27.38-.32-.02c-.05.14-.11.25-.15.2l-.11-.13c-.09-.08-.4-.37-.51-.57-.13-.24-.36-.63-.34-.93.02-.3.08-.71.15-.98l-.34-.48s-.65-1.64.21-3.18c.87-1.53.72-1.37,1.35-2.14.63-.77,1.15-.91,1.7-1.5.55-.6,1.33-1.43,1.57-1.81.24-.39,1.11-1.1,1.11-1.1l2.2-1.84-3.18-5.53ZM194.69,44.86c.19-.52.77-.79,1.29-.6.23.08.35.16.47.35l.11-.22c.52-1.17.77-1.36.77-1.36l.15.15s-.91,1.44-1.09,1.79c-.18.34-.38.95-.77.99-.39.03-.89.14-.89.14,0,0,.11-.05.29-.14-.34-.25-.47-.66-.31-1.08M191.61,45.26c.27-.75,1.1-1.13,1.84-.86l.28.14c-.04-.14-.14-.26-.35-.34l-.12-.06c.11-.13.41-.24.55-.08.14.16.17.41.13.53l-.03.08c-.07.17-.21.5-.25.58-.06.09-.22.22-.22.37,0,.15.04.36.02.5-.03.14-.08.47-.13.54l-.36.39-.1.13c-.12.12-.35.21-.57-.16-.62-.33-.92-1.08-.68-1.76M190.72,47.54c.06-.17.2-.29.37-.33-.15-.1-.17.03-.17.03l.15-.22.19.19.04.26c-.02.18-.09.48-.2.7l-.23.26s.06-.12.13-.29c-.23-.1-.35-.36-.27-.6M188.7,53.9c-.12.24-.29.63-.28.69-1.47-1.66.21-3.7,1.15-4.62-2.02,3.32-.86,3.93-.86,3.93M190.85,56c-.04.18-.15.18-.15.18-1.84-1.67-.76-4.9-.76-4.9-.26,2.18.13,3.78.46,4.35.34.58.5,0,.5,0,0,0-.01.19-.05.36M191.71,58.52s-.45,1.25-.86.69c-.41-.56-.07-2.35.37-3.14.12-.23.39-.58.71-.95-.11-.08-.11-.27-.3-.69-.11-.24-.13-.38-.12-.45-.27.22-.55.44-.68.53-.28.2-.36.15-.36.15-.64-.37.25-2.91.25-2.91-.68,3.4,1.45,1.68,1.45,1.68,0,0-.31.25-.63.51.49,1.26,1.02.34,1.02.34,0,0-.07.13-.17.29.69-.78,1.41-1.53,1.41-1.53-4.19,7.02-2.1,5.48-2.1,5.48M199.99,59.74l.02.03.42.68c.1.13.39-.21.39-.21,0,0-.09.18-.18.35-.09.17-.14.15-.14.15l-.12-.11s-.37-.73-.38-.89"/>
      <path class="cls-6" d="M207.54,48.18l-.83-1.4c-.25.19-1.26.95-1.28.97l-1.06.93-.64.54-.44.57c.29-.2.67-.5.89-.32.32.26-.35.8-.52,1.43-.16.63-.11,1.32-.1,1.59.02.25.08,1.74-.58,4.02.49-.24,2.98-1.46,3.57-2.06.07-.23.2-.68.32-1.05.16-.52.13-.98.13-1.32s.2-.68.44-1.16c.23-.48.29-.79.26-1.1-.02-.22-.13-.97-.18-1.63"/>
      <path class="cls-6" d="M209.32,51.94c-.08.16-.17.3-.26.41-.45.56-.93.93-.93.93,0,0,.35-.91.62-1.5s.97-3.28,1.09-3.83l.03-.35-1.16-2.19-.26.22-.24.14c.19.09.04,2,0,3.51-.04,1.52-.58,2.09-.74,2.48-.11.26-.24.72-.34,1.17.11-.09.99-.89,1.2-1.28,0,0-.68,1.6-.14,2.72.54,1.12.68,1.39.24,2.94-.43,1.55-.14,1.87-.84,2.33-.69.46-3.41,1.29-3.54,1.9-.12.59-1,3.62-2.16,3.54v.02s-.35-.11-.75-.15c.2.03.45.07.51.1.11.04.22.13.57.07.35-.06.94-.03,1.09-.54.14-.51.49-2.47.67-2.56.19-.09.87-1.08,1.42-1.21.55-.13,1.23-.14,1.54-.21.32-.07,1.02-.63,1.51-1.34.3-.44,1.77-2.05,2.85-3.21l-1.98-4.11Z"/>
      <path class="cls-6" d="M406.01,63.45c.06-.78-.02-1.56-.17-2.32-.08-.39-.27-.72-.62-.93l-.2-.16-.14-.11-.16.09v.31s-.09.17-.09.17l-.11-.14c-.22-.49-.31-1.01-.36-1.54-.04-.43-.05-.86,0-1.28l.14-.19.16-.26c-.02-.35.05-.7.07-1.04.02-.43-.02-.86-.18-1.26l-.03-.11c.01-.19-.08-.34-.19-.49-.12-.17-.2-.35-.29-.53-.11-.24-.24-.48-.42-.68l-.08-.15c-.1-.31-.27-.58-.45-.85-.1-.15-.25-.39-.33-.54-.08-.15-.16-.28-.28-.41l-.1-.17-.15-.23c-.13-.14-.34-.12-.46.03l-.06.07-.14-.02-.04-.08c-.07-.15-.17-.24-.35-.26-.22-.03-.3-.12-.32-.34l-.02-.15c-.11-.35-.02-.69.02-1.04l.02-.1.2-.09.15.09c.19.1.36.03.41-.18.04-.16.09-.32.17-.46v-.26c-.13-.36-.32-.7-.48-1.05-.07-.15-.15-.3-.26-.43-.51-.63-.97-1.3-1.47-1.93-.62-.78-1.2-1.59-1.77-2.42l-.07-.09c-.21-.18-.32-.43-.48-.64l-.07-.09c-.34-.31-.62-.67-.92-1-.13-.14-.26-.27-.44-.33l-.06.02c-.27.07-.67.97-.75,1.41-.08.44,1.19,2.05,1.19,2.05-.32-.08-1.51-1.56-1.73-1.83-.22-.27.42-1.4.53-1.53.06-.06.26-.18.45-.28l-.34-.08c-.22-.03-.38-.14-.43-.37l-.08-.23-.09-.34c0-.14,0-.28.03-.41.14-.56.01-1.07-.25-1.56l-.11-.21.03-.16.04-.04c.3-.25.15-1.27.05-1.63-.33-3.06-6.28-12.37-9.84-14.28-.13-.07-.21,0-.19.13l.04.29c-.15.48-.07,1,.27,1.37.36.38.37.79.39,1.21,0,.15.01.31.02.46l-.15.1c-.25-.08-.49-.2-.72-.32-.29-.15-.61-.23-.93-.27-.34-.04-.67-.09-1-.13l-.36.04-.03.07c.11.22.27.4.43.59.21.24.42.48.61.74.11.15.22.3.29.47l.12.16.26.31c.18.32.4.62.62.91.14.2.28.4.37.64h-.02s.28.46.28.46c1,.68,5.14,4.51,7.11,7.06,0,0,1.52,2.01,1.77,2.96,0,0-.6-1.16-1.8-2.58-1.96-2.35-4.92-5.51-6.16-5.87l7.03,12.25-4.55,7.97.3.11c.19.12.81,1.05.76,1.42,0,0-.64-.86-.81-1.03-.07-.07-.28-.14-.49-.13l-.45.71-.21-.11c-.4.71-1.03,1.98-1.09,2.16-.08.24.19-1.03.35-1.44.07-.18.27-.52.48-.85l-2.26-1.14c.2.14.36.26.45.33l.07.05-.07-.05c-.3-.17-1.42-.72-2.15-.51-.99.21-1.45.52-1.63.72l-.08.14.08-.14-.25.1c-.22.26-.5.44-.84.48-.19.03-.38.06-.55.14-.2.1-.42.13-.64.13-.33-.01-.66-.05-.99,0l-.14-.02-.15-.02-.08.16.07.12c.26.43.52.84.77,1.28.21.38.53.64.89.86.38.23.75.46,1.12.7.3.19.6.39.9.57.2.12.42.17.64.22.18.04.29.13.35.31.1.28.21.56.34.83.18.38.4.73.67,1.05.09.11.08.13-.06.16-.14.03-.29.05-.43.09-.14.03-.23.16-.21.3.05.36.17.69.38.98.38.53.84.99,1.38,1.36.38.26.77.49,1.18.71.28.15.55.3.83.43.4.18.8.37,1.21.53l.33.15c.2.09.4.12.61.07.15-.03.3-.05.45-.1.24-.07.42.02.58.18.23.23.49.44.75.63.46.34.93.63,1.47.82l.29.19.04.17-.05.33c-.02.16-.07.31-.18.44-.12.14-.23.28-.37.4-.17.13-.29.32-.46.45l-.04.27.11.1c.23.2.46.41.69.61l.4.17c.15,0,.31.03.46.07.4.12.8.13,1.2.06.29-.05.57-.13.85-.22l.23-.05c.2.01.36-.06.51-.18.25-.18.51-.34.77-.5l.16-.09h.33s.15.07.15.07c.23,0,.45.07.67.09.18.02.35.02.53,0,.25-.03.35.03.44.26.13.34.28.68.43,1.01l.1.27c.07.24.22.41.44.52l.23.11c.42.23.87.42,1.29.66.29.16.6.26.91.35.39.12.77.24,1.15.37.19.06.38.1.56.18.14.06.28.11.43.15.3.09.61.13.92.14.13,0,.26.01.39.02.14.01.27-.01.37-.11l.04-.09c-.05-.5-.11-1.01-.13-1.52-.02-.41-.1-.82-.16-1.22-.02-.14-.02-.27.01-.4.21-.82.35-1.65.42-2.5M404.49,62.71l-.18.52s.14-.88-.33-1.69c-.13-.24-.46-.28-.64-.09-.13.14-.28.3-.38.45,0,0,.37-.66.52-1.07l.2-.04c.29.3.88,1.04.81,1.93M402.61,57.94l.22-.2c.2,1.19.35,2.62.97,2-.05.13-.3.55-.47.83l-.2-.04c-.12-.79-.51-2.59-.51-2.59M401.21,51.38c.06-.18.08-.39.41-.61,0,0-.25.39-.15.57.1.18,1.68,1.9,2,2.38.33.48.39.53.38.76,0,0-.94-1.1-1.66-1.78-.72-.68-1.04-1.14-.98-1.32M402.52,57.35l-.2.42-.07-.16.28-.25ZM401.24,57.59l-.13.12c-.04-.14-.14-.85-.14-.85.07.29.27.73.27.73M401.6,56.99s.81-.18.97,3.01c0,0-.69-2.39-.84-2.48-.15-.09-.81.88-1.34,1.22,0,0,1.16-1.23,1.2-1.75M400.49,56.6c-.18.35-.6.85-.8,1.03l-.18-.04-.15-.45c-.07-.14-.3-1.17-.3-1.17l.54.96c.06.14.24.18.35.07l.54-.4ZM386.49,25.56c-1.86-1.02-4.21-2.17-3.54-.94,0,0-1.06-1.04-.99-1.17.07-.13,2.4.33,4.39,1.7,1.99,1.37,4.35,4.05,5.42,6.46,0,0-3.44-5.03-5.29-6.05M385.76,22.16c-.26-.25-.68-.05-.67.3l.02.48-.7-1.87c-.06-.22.21-.38.38-.22,1.79,1.72,7.51,7.74,9.25,14.08,0,0-2.8-7.49-8.29-12.77M393.13,41.8c.15-.2.62-.42,1.02.03.39.45,1.69,1.52,1.98,1.84.3.33,1.83,1.37,2.15,1.86.32.49,1.51,2.36,1.59,2.91.09.54-.07,1.25-.51,1.83-.45.58-1.61-.22-1.61-.22h0c-.26-.17-.37-.32-.46-.43-.09-.12-.3-.67-.41-1.09-.06.16-.15.29-.28.41l-.19.13c.19.04.34.09.4.17.2.25.32.56.05.29-.28-.26-.44-.17-.79-.24-.18-.03-.36-.05-.61-.14-.3-.08-.61-.24-.88-.48l-.08-.06c-.84-.6-.73-1.45-.7-2,.03-.55.42-.65.6-.85.18-.21.7-.13,1.6.41.9.54,1.18,2.36,1.35,2.98.06.24.22.46.38.65.38.25,1.21.47,1.34.41.15-.07.27-.59.46-.94.19-.35-.19-.95-.32-1.42-.13-.47-.83-1.58-1.17-2.05-.34-.47-1.82-1.57-2.01-1.71-.19-.14-1.51-1.36-2.13-1.99-.62-.62-1.39.97-1.35.87.04-.09.42-.99.57-1.19M398.85,55.15c-.11.21-.6.61-.83.76l-.14-.07c0-.14,0-.42-.04-.57-.08-.24-.01-1.5-.01-1.5l.29,1.72.73-.35ZM396.74,53.4l-.35-.65c.42.59.65.69.77.71l.35-.14c-.03.13-.17.29-.27.32h-.47s-.03-.24-.03-.24ZM395.91,55.49l-.79-.06,1.25-.16.09.12c-.1.29-.41,1.03-.39,1.15l-.05-.24c.02-.06.08-.3.13-.5.04-.15-.07-.3-.23-.31M390.77,46.42c.15.81.55,1.39.96,1.92.41.52,1.65,1.21,1.98,1.44.33.23,1,.85,1.03,1.07.02.16.21.53.32.74l.05.09.03.05-.1-.09c-.35-.2-1.98-.99-2.31.86,0,0,.05-1.05.64-1.31.42-.18,1.02-.09,1.4.14l-.22-.36c-.11-.25-.29-.42-.91-.91s-1.43-.89-2.19-1.6c-.75-.71-.68-2.03-.68-2.03M394.59,54.87s-.38-1.77-.51-1.92c-.12-.15-1.07.07-1.07.07.2-.07.79-.28,1.08-.39l.27.13c.2.6.23,2.08.23,2.11M392.03,50.17s.12.64.17.94c.06.31.14.82.14.82l-.48-1.3-1.37.66s1.25-1.26,1.53-1.13M386.93,55.95c.07-.17,1.3-.4,2.06-.24.77.17,1.36.56,1.36.56,0,0-1.51-.16-2.48-.11-.97.05-1.07.09-1.71.12-.12,0,.7-.18.77-.34M377.84,50.76c5.68,4.75,7.57,2.62,7.57,2.62-.2,1.42-.86,1.49-.86,1.49-4.8-.92-6.71-4.11-6.71-4.11M390.44,61.03c-5.33.21-7.47-3.87-7.47-3.87,8.63,6,8.48.26,8.48.26,0,0,.45.42.26,1.82-.19,1.39-1.27,1.8-1.27,1.8M391.37,62.12s2.67-1.14,3.48-2.17c0,0,.27,0,.3-.46.03-.45.03-1.64.03-1.64l.23-.1-.04,2.02-.4.41c-.07.05-2.1,1.63-3.61,1.94M395.35,61.77s-1.49.11-1.95.62c-.46.5-.88.8-1.07,1.32,0,0-.03-.69.03-.83.06-.13.8-1.11,1.65-1.2.85-.09,1.35.09,1.35.09M397.5,64.06c-3.6,3.03-6.18.93-6.18.93,5.98,1.34,5.09-2.52,5.09-2.52,1.39.92,1.08,1.59,1.08,1.59M397.61,57.04l-.31-.05c-.14.11-.36.1-.68.22,0,0,.66-.45.68-.86,0,0,.29.16.48.42.19.26.15.58.23.94.08.35.16.62.27.73,0,0-.41-.2-.49-.47-.07-.23.08-.54-.18-.94M399.07,64.5c-.09.27-.43.69-.41.65l-.1-.19s.08-.09.16-.22c.09-.13.14-.47.17-.75.03-.28-.45-1.34-.55-1.51-.1-.17-.68-2.18-.68-2.18,0,0,.66,1.57.79,1.92.13.36.44.95.53,1.2.09.24.17.82.08,1.09M399.72,58.69c-.22-.1-1.19.68-1.19.68.19-.19.75-.76,1.03-1.06h.38c.56.57,1.44,2.26,1.45,2.3,0,0-1.44-1.82-1.67-1.92M405.16,65.81c-.02-.19.06-.49-.05-.53-.09-.04-.5.64-.64.92l.1.32c-.05.24-.26,1.93-.44,2.26l-.09.18-.27-.08s.58-1.92.53-2.34c-.05-.43-1.02-.95-1.31-1.03-.3-.08-1.07-.21-1.19-.1s-.4,1.17-.49,1.33-.33.6-.38.66l-.24.29-.23-.11s.9-1.46.92-2.08c0-.21.05-.33.11-.4-.13-.29-.4-1.17-.3-1.55.12-.45-.09-.88-.09-.88.23.15.28-.05.3-.04.03.01.08.77.03,1.11-.04.29.19,1.08.25,1.28l.17.04c.09.04.69.07,1,.12.05-.14.07-.4.14-.7.09-.4.3-.92.3-.92.07.22.29.14.29.14,0,0-.25.59-.36.84-.08.17-.13.49-.16.69.29.12.95.52,1.09.64l.18.17c.11-.24.35-.76.42-.86l.22-.21c-.01-.18-.05-.61-.18-.83-.16-.29-.18-.54-.46-.72,0,0,.12-.08.18-.26,0,0,.47.73.52,1.01.04.24.07.55.06.73h.14c.08.06.09.74.14.91.04.17.01.47.04.61,0,0-.24-.41-.26-.61M405.52,63.65s.42-1.7-.34-2.77h-.26c-.1.13-.24.34-.4.61,0,0,.22-.72.3-1.14l.23-.08c.33.28.94.74.84,2.52,0,0-.07.56-.36.86"/>
      <polygon class="cls-6" points="206.22 41.33 216.98 22.41 230.08 22.41 230.93 21.06 216.02 21.06 204.33 41.31 206.61 45.26 207.94 43.92 206.22 41.33"/>
      <path class="cls-6" d="M221.06,59.74c.35.56.65,1.17.86,1.82h9.01l-1.05-1.82h-8.83Z"/>
      <path class="cls-6" d="M209.9,50.48l2.95,5.33c.33-.04.67-.06,1.02-.06.48,0,.95.04,1.4.12l-4.61-7.52-.76,2.14Z"/>
      <polygon class="cls-6" points="221.48 57.89 218.84 56.8 211.73 45.71 213.93 46.4 221.48 57.89"/>
      <path class="cls-6" d="M222.14,24.98c-.63.94-.92,1.68-1.46,2.12-3.05,2.53-5.39,5.64-7.56,8.94.3-3.69,1.59-6.91,4.5-9.56.04.38.07.64.14,1.26,1.42-.9,2.7-1.71,4.38-2.76"/>
      <path class="cls-6" d="M216.87,46.48c-.48-1.47-1.05-3.02-1.94-4.34-.89-1.32-2.12-2.42-3.2-3.63l.29,2.49c.33,1.05.7,2.22,1.43,2.99.95,1.01,2.26,1.68,3.42,2.49"/>
      <path class="cls-6" d="M372.46,58.5c1.63-1.93,3.1-3.67,4.54-5.37.42,2.73-1.03,4.53-4.54,5.37"/>
      <path class="cls-6" d="M385.38,38.44c-.08,1.56,0,3.14-.29,4.64-.29,1.51-.95,2.95-1.63,4.28-.23-1.34-.67-2.69-.63-4.02.03-1.02.57-2.07,1.06-3.01.39-.74,1.04-1.34,1.49-1.89"/>
      <path class="cls-6" d="M373.47,31.23c2.95-.2,4.74,1.05,6.08,3.43.42.75,1.91.89,3.09.84-.93-1.12-1.88-2.22-2.79-3.36-1.77-2.22-3.94-2.61-6.37-.9"/>
      <path class="cls-6" d="M374.56,29.64c.57-.12,1.13-.14,1.67-.05l-2.19-3.81h-14.38l-1.47,1.47h15.01l1.37,2.39Z"/>
      <path class="cls-6" d="M376.08,32.27l4.75,8.23-7.65,13.25h-4.94l-1.47,1.47h7.26l8.5-14.72-3.22-5.58c-.88-1.24-1.93-2.14-3.23-2.66"/>
      <path class="cls-6" d="M382.29,56.08c-.08-.16-.25-.33-.49-.52l-2.52,4.38h-3.12c.33.5.6,1.04.79,1.62h3.37l2.25-3.91c-.93-.5-.02-1.06-.28-1.57"/>
      <path class="cls-6" d="M379.64,21.06h-14.92l.72,1.22h13.11l11.54,18.89-4.57,7.9c.62.33,1.16.67,1.49.88l4.99-8.64-12.36-20.25Z"/>
      <path class="cls-6" d="M223.77,55.55h9.39c-.38-.05-.77-.1-1.16-.16-1.02-.15-2.02-.34-2.98-.72-.39-.16-.77-.34-1.16-.52h-3.37l-1.03-1.96-1.84-.7,2.14,4.06Z"/>
      <polygon class="cls-6" points="221.68 51.28 223.64 51.53 220.7 48.2 218.26 47.4 221.68 51.28"/>
      <path class="cls-6" d="M220.85,47.74l.59,1.15.04-.7-.25-.72s-.2.15-.37.27"/>
      <path class="cls-6" d="M219.94,47.73l.3.18c.07-.15.14-.31.17-.39l-.31-.18-.15.39Z"/>
      <path class="cls-6" d="M223.77,25.78l-7.83,14.89,3.29,6.25.79.49.15-.39.38-.38-.21-.4-1.87-3.55-1.06-2.01,7.1-13.49h4.98c.61-.17,1.25-.28,1.84-.48.53-.18,1.01-.49,1.56-.62.3-.07.64-.11.95-.13h.3s0,0,0,0l.11-.08.12-.08h-10.59Z"/>
      <polygon class="cls-6" points="220.41 47.29 220.44 47.27 220.73 47.97 220.74 46.83 220.23 46.99 220.41 47.29"/>
    </g>
  </g>
</svg>