<?xml version="1.0" encoding="UTF-8"?>
<svg id="Layer_2" data-name="Layer 2" xmlns="http://www.w3.org/2000/svg" xmlns:xlink="http://www.w3.org/1999/xlink" viewBox="0 0 816.84 588.94">
  <defs>
    <style>
      .cls-1 {
        fill: url(#linear-gradient-2);
      }

      .cls-2 {
        fill: none;
      }

      .cls-3 {
        fill: url(#linear-gradient-4);
      }

      .cls-4 {
        fill: url(#linear-gradient-3);
      }

      .cls-5 {
        clip-path: url(#clippath-1);
      }

      .cls-6 {
        fill: #202729;
      }

      .cls-7 {
        clip-path: url(#clippath-3);
      }

      .cls-8 {
        clip-path: url(#clippath-2);
      }

      .cls-9 {
        fill: url(#linear-gradient);
      }

      .cls-10 {
        clip-path: url(#clippath);
      }
    </style>
    <clipPath id="clippath">
      <polygon class="cls-2" points="89.81 37.23 59.97 37.23 63.59 43.07 83.98 43.07 82.63 44.42 69.26 44.42 70.67 45.84 83.24 45.84 83.24 45.82 85.99 43.07 96 43.07 101.87 37.23 101.8 37.23 127.04 11.99 127.04 3.74 93.55 37.23 91.82 37.23 127.04 2.01 127.04 0 89.81 37.23"/>
    </clipPath>
    <linearGradient id="linear-gradient" x1="-14" y1="592.63" x2="-13" y2="592.63" gradientTransform="translate(563275.02 13267.96) rotate(90) scale(950.31)" gradientUnits="userSpaceOnUse">
      <stop offset="0" stop-color="#e4c592"/>
      <stop offset=".71" stop-color="#bda47b"/>
      <stop offset=".86" stop-color="#9f8b69"/>
      <stop offset="1" stop-color="#75674d"/>
    </linearGradient>
    <clipPath id="clippath-1">
      <polygon class="cls-2" points="693.98 561.66 691.23 564.41 681.21 564.41 675.34 570.25 675.41 570.25 668.74 576.92 668.74 585.17 683.67 570.25 685.39 570.25 668.74 586.9 668.74 588.91 687.4 570.25 723.63 570.25 717.8 564.41 693.24 564.41 694.59 563.06 716.45 563.06 715.03 561.64 693.98 561.64 693.98 561.66"/>
    </clipPath>
    <linearGradient id="linear-gradient-2" y1="592.63" y2="592.63" gradientTransform="translate(563877.72 13007.39) rotate(90) scale(950.31)" xlink:href="#linear-gradient"/>
    <clipPath id="clippath-2">
      <path class="cls-2" d="M814.86,44.83h-32.1l-7.8-7.8h-452.69s-5.58,5.58-5.58,5.58h457.48l2.23,2.22h-402.37v-.02h-63.33l-32.83-32.83h2.12l30.87,30.87,5.83-5.84L283.4,3.74h-13.79l-3.74-3.74h-128.51v2.01h127.62l1.72,1.72h-129.35v8.25h137.6l34.84,34.84h64.23s428.77-.01,428.77-.01v486.07l9-9.05V46.81h3.07v481.86l-32.97,32.97h-55.53s5.87,5.84,5.87,5.84h43.83l-1.35,1.35h-42.18l-7.18-7.18h-2.01s8.61,8.6,8.61,8.6h44.15s2.77-2.77,2.77-2.77h9.53s23.41-23.41,23.41-23.41h0s0,0,0,0v-9.52l5.04-5.04h0s0,0,0,0V44.83h-1.98M797.62,555.44l-6.2,6.2h-6.73l12.93-12.93v6.73ZM809.81,543.25l-10.21,10.21v-6.73l10.21-10.21v6.73Z"/>
    </clipPath>
    <linearGradient id="linear-gradient-3" y1="592.46" y2="592.46" gradientTransform="translate(-562548.46 13065.5) rotate(90) scale(950.31 -950.31)" xlink:href="#linear-gradient"/>
    <clipPath id="clippath-3">
      <path class="cls-2" d="M627.15,587.52l-1.35-1.35h34.43l-5.83-5.84h-34.43l-17.69-17.69-1.98-1.98H77.97l-8.7-8.7h0s0,0,0,0H14.05V74.6s-9,9.05-9,9.05v472.81h62.36l4.2,4.2H1.98V78.8l32.97-32.97h25.34s-5.87-5.84-5.87-5.84h-13.63l1.35-1.35h11.99l7.18,7.18h2.02s-8.61-8.6-8.61-8.6h-13.95s-2.77,2.77-2.77,2.77h-9.53S5.04,63.41,5.04,63.41h0s0,0,0,0v9.52L0,77.98h0s0,0,0,0v484.66h73.58l11.22,11.22h0s0,0,0,0h506.39l9-9H82.17l-2.22-2.23h520.31l17.69,17.69h-1.72l-11.68-11.67-4.13,4.13,13.35,13.38h10.02l2.75,2.75v.02h32.27s1.42-1.42,1.42-1.42h-33.08M19.21,52.04l6.2-6.2h6.73l-12.94,12.93v-6.73ZM7.02,64.23l10.21-10.21v6.73l-10.21,10.21v-6.73Z"/>
    </clipPath>
    <linearGradient id="linear-gradient-4" y1="592.8" y2="592.8" gradientTransform="translate(-563018.08 13196.16) rotate(90) scale(950.31 -950.31)" xlink:href="#linear-gradient"/>
  </defs>
  <g id="Layer_1-2" data-name="Layer 1">
    <g>
      <g>
        <g class="cls-10">
          <rect class="cls-9" x="55.29" y="-17.69" width="76.44" height="81.21" transform="translate(20.16 85.28) rotate(-54.15)"/>
        </g>
        <g class="cls-5">
          <rect class="cls-1" x="669.06" y="545.04" width="54.26" height="60.47" transform="translate(-177.85 802.59) rotate(-54.15)"/>
        </g>
        <g class="cls-8">
          <rect class="cls-4" x="47.01" y="-157.24" width="860.18" height="884.74" transform="translate(-33.45 504.82) rotate(-54.15)"/>
        </g>
        <g class="cls-7">
          <rect class="cls-3" x="-86.83" y="-116.05" width="833.88" height="858.27" transform="translate(-117 397.27) rotate(-54.15)"/>
        </g>
      </g>
      <path class="cls-6" d="M210.03,44.03c0-.96-.59-1.1-.67-1.11h2.9c-.08.01-.64.14-.64,1.07v2.11c-.76.31-1.86.46-2.74.46-2.58,0-3.9-1.88-3.9-3.84,0-2.11,1.44-4.2,4.35-4.2,1.18,0,1.94.31,2.23.46v2c-.33-.64-1.07-1.32-2.34-1.32-1.45,0-2.49,1.15-2.49,2.85s1.03,2.88,2.44,2.88c.35,0,.62-.07.87-.15v-1.22Z"/>
      <path class="cls-6" d="M198.91,40.03c0-1.14-.57-1.3-.68-1.33h3.54c1.62,0,2.53,1.11,2.53,2.34,0,1.4-1.01,2.51-2.8,2.51-.37,0-.77-.06-1.03-.14v1.68c0,1.14.56,1.27.67,1.28h-2.83c.08,0,.6-.1.6-1.28v-5.08ZM200.47,42.36c.22.07.55.13.85.13.83,0,1.29-.58,1.29-1.4,0-.77-.49-1.34-1.37-1.34h-.77v2.61Z"/>
      <path class="cls-6" d="M191.54,40.04c0-1.16-.61-1.32-.7-1.34h3.38c1.81,0,2.72,1.11,2.72,2.25,0,1.05-.68,1.96-1.88,2.12.2.12.4.36.58.67l1.03,1.78c.44.76.89.85,1,.86h-2.34l-1.28-2.36c-.28-.52-.46-.66-.76-.66h-.16v1.74c0,1.13.5,1.27.59,1.28h-2.78c.08-.01.61-.12.61-1.28v-5.06ZM193.92,42.33c.98,0,1.37-.65,1.37-1.33,0-.65-.46-1.24-1.38-1.24h-.8v2.57h.81Z"/>
      <path class="cls-6" d="M256.25,32.08c-1.38-3.02-2.84-6.02-4.08-9.1-.47-1.16-1.06-1.68-2.1-1.67l5.4,12.44h1.6c-.3-.56-.6-1.17-.83-1.67"/>
      <path class="cls-6" d="M231.36,40.65l.35-.6c-.93-.15-1.88-.36-2.82-.58l.68,1.18h1.79Z"/>
      <path class="cls-6" d="M231.59,40.79l.6,1.04c.74.15,1.45.25,2.12.28h.15s.75-1.29.75-1.29l-.3-.52c-.95.03-1.93-.05-2.91-.2l-.4.69Z"/>
      <path class="cls-6" d="M235.42,40.99l-.65,1.12c.67-.02,1.6-.12,2.44-.23.16-.02.31-.05.47-.08l-.47-.81h-1.8Z"/>
      <path class="cls-6" d="M229.56,40.93l-.13.22c.82.23,1.62.44,2.4.61l-.48-.83h-1.8Z"/>
      <path class="cls-6" d="M235.91,40.22c-.23.03-.46.05-.7.06l.25.44h1.8l.6-1.04c-.62.26-1.27.46-1.95.54"/>
      <path class="cls-6" d="M216.35,42.28c-.16-.57.15-1.34.94-1.98l-.45-.79c-1.05.86-1.55,1.97-1.6,2.88h1.16l-.04-.11Z"/>
      <path class="cls-6" d="M220.45,39.2l.06-.1-.51-.88c-1.24.17-2.21.58-2.95,1.11l.46.79c.68-.47,1.66-.83,2.94-.93"/>
      <path class="cls-6" d="M240.2,39.04l.9-1.56h0c-.6.56-1.27,1.1-2.01,1.56h1.12Z"/>
      <path class="cls-6" d="M226.39,39.08l-.14-.23c-1.01-.23-2-.43-2.98-.55l-.46.8.17.3c.88.17,1.83.41,2.82.7l.58-1.01Z"/>
      <path class="cls-6" d="M238.61,39.31c-.1.05-.2.1-.29.15l-.81,1.4.49.86c1.02-.24,1.98-.69,2.83-1.33l-.63-1.08h-1.59Z"/>
      <path class="cls-6" d="M220.73,38.94h1.85l.4-.69c-.74-.08-1.46-.12-2.17-.09-.17,0-.34.02-.5.04l.43.74Z"/>
      <path class="cls-6" d="M216.75,42.77l-.14-.1h-1.39c.01.29.07.56.18.77.57.77,1.38.85,2.13.67l-.77-1.34Z"/>
      <path class="cls-6" d="M254.77,33.76l-5.37-12.36c-.28.06-.45.15-.57.47-.98,2.56-1.8,5.14-2.79,7.7-.56,1.46-1.08,2.89-1.95,4.2,0,0-1.04,1.81-2.79,3.52l.12.2-.98,1.69.61,1.05c2.06-1.64,5.29-4.61,6.54-8.03h0c.16-.35.29-.71.4-1.08h3.08c1.21,0,1.5.24,1.58,1.44.02.35-.16.85-.25,1.2h2.36ZM248.46,29.12c.48-1.3.94-2.53,1.45-3.91.54,1.38,1.01,2.62,1.51,3.91h-2.96Z"/>
      <polygon class="cls-6" points="226.62 38.94 226.67 38.94 226.62 38.93 226.62 38.94"/>
      <path class="cls-6" d="M222.56,39.22h-.79c.27.03.56.06.85.11l-.06-.11Z"/>
      <path class="cls-6" d="M226.64,39.22l-.55.95c1,.29,2.03.6,3.06.9l.17-.29-.81-1.4c-.23-.05-.46-.11-.68-.16h-1.18Z"/>
      <path class="cls-6" d="M219.52,43.1s-1.4.14-2.35-.15l.63,1.08c.94-.3,1.72-.93,1.72-.93"/>
      <path class="cls-6" d="M242.94,21.36v8.68c0,.18-.15.32-.32.32s-.33-.15-.33-.32v-8.68h-1.79c.17.04,1.02.26,1.02,2.05v5.27l-5.85-7.32h-3.95c.13.06,1.7.76,1.7,2.2v8.17c0,1.84-.82,2.01-.95,2.03h4.13c-.19-.02-1.12-.24-1.12-2.03v-6.31l4.15,5.06c1.53,1.86,1.99,3.28,1.99,3.28h1.94v-10.35c0-1.84.84-2.03.97-2.05h-1.6Z"/>
      <path class="cls-6" d="M225.02,21.35l-.46.05c-.28.06-.45.15-.57.47-.99,2.56-1.81,5.14-2.79,7.7-.54,1.41-1.86,4.2-1.86,4.2h1.11s4.56-12.41,4.56-12.41Z"/>
      <path class="cls-6" d="M231.41,32.09c-1.38-3.02-2.84-6.02-4.08-9.1-.39-.97-.88-1.5-1.63-1.63l-4.55,12.4h.95s.46-1.08.64-1.56h0c.16-.35.29-.71.41-1.08h3.08c1.21,0,1.51.24,1.58,1.44.02.35-.16.85-.24,1.2h4.67c-.3-.56-.6-1.17-.83-1.67M223.62,29.12c.48-1.3.94-2.53,1.45-3.91.54,1.38,1.01,2.62,1.51,3.91h-2.96Z"/>
      <path class="cls-6" d="M215.36,32.22c-2.35,0-3.82-2.01-3.82-4.61s1.51-4.52,3.76-4.52c1.75,0,2.96.99,3.54,2.44v-1.93c-.91-.69-2.04-1.11-3.27-1.11s-2.27.38-3.16,1.02c-.12.09-.28.07-.38-.03-.13-.13-.11-.35.04-.46.99-.71,2.2-1.13,3.51-1.13,1.21,0,2.33.36,3.27.97v-.9c-.59-.32-1.71-.73-3.33-.73-4.48,0-6.75,3.33-6.75,6.74,0,3.2,2.01,6.22,6.27,6.22,1.64,0,3.18-.73,4.06-1.73v-2.14c-.93,1.19-2.4,1.92-3.72,1.92"/>
      <path class="cls-6" d="M199.6,23.52v8.17c0,1.88-.86,2.05-.99,2.07h1.78v-12.4h-1.93c.15.04,1.14.28,1.14,2.16"/>
      <path class="cls-6" d="M202.15,31.69v-2.81h.26c.49,0,.78.22,1.23,1.06l2.07,3.82h3.78c-.19-.02-.91-.17-1.62-1.4l-1.66-2.87c-.28-.5-.61-.89-.93-1.08,1.94-.26,3.04-1.73,3.04-3.43,0-1.84-1.47-3.63-4.39-3.63h-2.88v12.4h2.06c-.15-.02-.95-.24-.95-2.07M202.13,23.05h1.28c1.49,0,2.24.97,2.24,2.01,0,1.1-.63,2.14-2.22,2.14h-1.3v-4.15Z"/>
      <path class="cls-6" d="M197.35,32.08c-1.38-3.02-2.84-6.02-4.08-9.1-.46-1.13-1.04-1.66-2.03-1.67l3.6,8.38c.07.16,0,.35-.16.42-.17.07-.36,0-.43-.17l-3.68-8.57h-.07c-.28.06-.45.16-.57.48-.98,2.57-1.81,5.14-2.79,7.7-.54,1.41-1.86,4.2-1.86,4.2h2.76s.46-1.07.64-1.56h0c.16-.35.29-.71.4-1.09h3.08c1.21,0,1.51.24,1.58,1.44.02.35-.16.85-.24,1.2h4.67c-.31-.56-.6-1.17-.83-1.67M189.57,29.11c.48-1.3.94-2.53,1.45-3.91.53,1.38,1.01,2.62,1.51,3.91h-2.96Z"/>
      <path class="cls-6" d="M182.89,23.4v5.27l-5.85-7.32h-1.43l9.32,10.84v-8.79c0-1.84.84-2.03.97-2.05h-4.04c.17.04,1.03.26,1.03,2.05"/>
      <path class="cls-6" d="M174.77,21.36h-1.67c.13.06,1.69.76,1.69,2.2v8.17c0,1.84-.82,2.01-.95,2.03h4.13c-.19-.02-1.12-.24-1.12-2.03v-6.31l4.15,5.06c1.53,1.86,1.99,3.28,1.99,3.28h1.94v-.57l-10.15-11.8-.02-.04Z"/>
      <path class="cls-6" d="M169.26,23.46v5.92c0,1.88-.65,2.83-2.46,2.83s-2.57-.74-2.57-2.83v-6c0-1.84.82-2.01.95-2.03h-1.99v8.1c0,.18-.15.32-.32.32s-.32-.15-.32-.32v-8.1h-1.96c.17.04.97.24.97,2.08v6.05c0,3.02,1.55,4.54,5.1,4.54,3.02,0,4.86-1.36,4.86-4.73v-5.85c0-1.9.91-2.09,1.04-2.1h-4.38c.19.04,1.08.26,1.08,2.1"/>
      <path class="cls-6" d="M175.67,40.62l-.27-.47.62-1.07c.7-.17,1.39-.33,2.09-.47l.65,1.13c-.99.25-2.03.56-3.09.88"/>
      <path class="cls-6" d="M184.53,39.52c-.59-.19-1.29-.31-2.09-.34-.05,0-.11,0-.16,0-.16,0-.32,0-.49.02l.38-.66h1.79l.57.98Z"/>
      <path class="cls-6" d="M183.51,38.26h-1.35l-.06-.11c.14,0,.28,0,.42.01.35.01.68.05,1,.1"/>
      <path class="cls-6" d="M179.05,39.67l-.65-1.12c1.14-.22,2.27-.38,3.36-.4l.15.26-.47.81c-.73.08-1.54.24-2.4.45"/>
      <path class="cls-6" d="M187.43,43.9l-.25-.44.85-1.48c.11.57.06,1.08-.12,1.45-.15.2-.31.35-.48.46"/>
      <path class="cls-6" d="M171.65,41.71h-1.21l-.83-1.44c1.09-.06,2.2-.24,3.32-.48l.21.36-.81,1.4c-.23.05-.45.11-.68.16"/>
      <path class="cls-6" d="M186.95,43.33h-1.8l-.12-.21c.82-.04,1.77-.23,1.94-.84.17-.6-.17-1.42-1.05-2.07h1.03l.9,1.56-.9,1.56Z"/>
      <path class="cls-6" d="M186.43,44.19c-.49,0-.98-.16-1.41-.35l.14-.24h1.79l.25.43c-.24.11-.5.15-.77.15"/>
      <path class="cls-6" d="M172.7,41.46l.67-1.15h1.8l.23.4c-.9.27-1.81.53-2.69.75"/>
      <path class="cls-6" d="M186.94,39.94h-1.45c-.17-.1-.36-.19-.57-.27l-.73-1.26c1.22.31,2.12.88,2.75,1.54"/>
      <path class="cls-6" d="M175.16,40.04h-1.77l-.17-.3c.81-.17,1.63-.37,2.44-.57l-.5.86Z"/>
      <path class="cls-6" d="M163.44,39.98l.62-1.07c-1.98-1.29-3.54-3.21-4.39-4.4-.43-.6-.78-1.26-1.04-1.95-.46-1.21-1.3-3.36-1.78-4.24.14-.06.39-.14.62-.25,1.01-.46,1.66-1.23,1.89-2.32.44-2.07-.76-4.05-2.94-4.31-1.51-.18-3.05-.18-4.58-.18v12.17h2c-.72-1.02-.94-2.59-.63-4.4.63-.13.85.3,1.09.69l1.18,2.28c.08.15.15.31.21.48,1.12,2.72,4.23,5.82,6.26,7.49h1.48ZM155.05,26.74c-.6.13-1.24.12-1.88.17v-3.7c.65.06,1.26.05,1.85.17.77.17,1.22.81,1.24,1.6.01.84-.44,1.58-1.2,1.75"/>
      <path class="cls-6" d="M184.77,43.72c-.57-.29-.97-.62-.97-.62,0,0,.34.03.8.03h.11l.2.34-.14.24Z"/>
      <path class="cls-6" d="M166.38,41.65h-1.35c-.18-.05-.37-.11-.55-.18l-.8-1.38.6-1.04c.9.56,1.89.98,2.94,1.14l-.84,1.46Z"/>
      <path class="cls-6" d="M168.73,42.11c-.53,0-1.28-.07-2.02-.16l-.08-.13.87-1.51h1.8l.9,1.55-.08.13c-.38.05-.76.09-1.12.11-.08,0-.18,0-.27,0"/>
      <path class="cls-6" d="M164.05,41.31c-.61-.26-1.18-.6-1.7-1.01l-.05-.04h1.15l.61,1.06Z"/>
      <path class="cls-6" d="M149.59,21.34c.72.54.89,1.31.89,2.14,0,2.48,0,4.96,0,7.44,0,.89-.03,1.77-.74,2.51h1.43v-12.17c-.5,0-1,0-1.5-.01l-.09.09Z"/>
      <path class="cls-6" d="M135.19,44.21c.27-1.23.91-1.67,1.22-1.75.31-.08,1.53-.25,1.71-1.16.18-.9.04-1.89.03-2.39-.01-.5.09-1.51.09-1.51,0,0-.1.61-.52.72-.08.27-.24.42-.3.47h0s0,0,0,0c-.07.06-1.23,1.01-1.85,1.36.17.04.4.18.56.53.28.59-.63,1.75-.63,1.75,0,0-.22.37-.53.98-.31.61-.25,1.04-.25,1.04h-.26s-.25.76-.25.76c-.02.05-.06.36-.24.51-.18.15-.36.1-.58,0-.23-.09-.64-.48-.64-.48l.07.05-.06-.04c-.22-.16-.4-.38-.56-.63l-.04.08.06.15.33.42.31.69c.04.07.16.14.42.11.26-.02.81.11.82.11.19-.14.86-.72,1.09-1.77"/>
      <path class="cls-6" d="M135.17,36.15c.09-.36.64-1.13.17-.91-.32.15-.29.27-.34.29-.18.22-.49.61-.52.64-.06.05-.51.46-.63.53-.12.08-.72.55-.81.66-.09.11-.29.29-.47.57-.18.28-.51.95-.55,1.02-.03.07-.22.49-.25.82-.03.32-.06.9-.02,1,.03.07.04.23.09.34.07,0,.24.04.45-.02.24-.07.56-.43.61-.47l.32.26c.38.4,1.1-.2,1.47-.53,0,0,.46-1.71.49-2.57.03-.87-.09-1.27,0-1.63"/>
      <path class="cls-6" d="M124.64,45.38c.57.88,1.43,1.65,2.34,2.02l.24.1c-.81-.36-1.35-.89-2.34-1.86-.09-.08-.17-.17-.24-.26"/>
      <path class="cls-6" d="M126.21,46.21c1.11.87,2.57.81,2.57,1.2,0,.1-.01.18-.02.25.08-.17.14-.46.11-.95-.09-1.57-.49-2.2-.49-2.2l-.5-.24c.07-.12,0-.46-.08-.76-.37-.15-2.07-.88-3.34-2.26,0,0-.71-.77-.72-1.1,0,0,2.04,2.4,3.94,2.95l-.03-.08h.02c-.87-.29-2.48-1.33-3.97-3.01,0,0-.61,1.86-.04,3.14l.28.54c-.16-1.06.07-2.04.11-2.27.06-.38.12-.33.23-.28.11.05.47.84.47.84-.71-.95-.54.9-.5,1.59.24.76.85,1.77,1.96,2.63"/>
      <path class="cls-6" d="M135.21,29.03s6.37-10.79,6.45-11.03c0,0,1.16-3.19.86-3.42-1.09.82-2.7,2.37-4.62,5.3,0,0-.31.62-.5.11v-.02c.03.79.18.8.6,1.07.52.34-.51.42-.92-.19-.41-.62.16-3.28.5-3.84.29-.49.46-.67.29-.58-.63.34-1.95,1.16-2.63,2.28-.86,1.4-1.07,2.34-1.24,2.45-.12.47-.22.97-.23,1.47-.03,1.57-.13,3.26-.19,4.02-.06.76-.37,2.17-.43,3.12-.05.95-.49,1.35-.59,1.5-.1.15-.32,1.04-.4,1.38-.09.34-.65.85-.65.85,0,0-.23.68-.45.98-.22.3-.98.54-1.06.58l-.36-.06c-.02.09-.12.3-.25.48-.13.18-.46.47-.72.59-.26.12-.47-.18-.47-.18.84.46,1.34-1.2,1.34-1.2.47.19.66.14.82.03-.11.02-.22.01-.34-.03-.35-.12-.52-.51-.4-.85.12-.35.51-.52.85-.4.34.12.52.5.4.84.25-.34.44-.91.44-.91.77-.38.67-1.36.88-1.74.21-.38.42-1.71.57-2.32.15-.62.67-4.85.67-4.85-.55-1.89.29-3.82.15-4.22-.14-.41-1.1,1.3-1.1,1.3v-.05c-.04.1-.08.2-.12.3-.67,1.7-2.45,4.76-2.57,4.94-.12.18-1.03,1.3-1.54,1.76l-.02.04h0s.17.08.19.19c0,.07-.07.22-.16.35-.06.09-.13.18-.18.23-.12.11-.39.64-.46.8-.07.16-.32.25-.39.42-.07.17-.42.75-.51.84l-.12.08c-.15.07-.38.13-.48.07-.14-.09.06-.27.06-.27,0,0,.27-.15.07,0-.2.15-.03.19-.03.19.12.02.23-.02.33-.1-.19-.37-.23-.82-.08-1.25.25-.7.95-1.11,1.66-1.03.25-.32.1-.44.1-.44v-.07s-.23.47-.23.47c0,0-.74-.16-1.35.61-.61.77-.34,1.54-.34,1.54,0,0-.23.09-.28.25-.05.16-.13.37-.2.6-.07.23-.55,1.38-.6,1.44l.05.42.04.4c-.03.06-.19.41-.06.74l.13.33s-.49.26-.92,1.15c-.43.89-.44,1.56.15,2.27,0,0,.26-.82.8-1.23,0,0-.32,1.2.83,2.32,0,0,.09.07.18-.47.1-.54.39-.9.39-.9l.21.46s-.34.38-.56.76c-.21.38-.42,1.11-.37,1.38.01.07-.05.89.36.98.4.08.32-.85,1.95-2.03,0,0,.98.44,1.2-.34,0,0,.11-.06.08.12-.03.18-.37,1.18-.56,1.43-.19.24-1.15,1.59-1.45,1.82.06-.02.21-.09.31-.2.12-.14.09-.06.23.11.13.16.27.95.28,1.21.06-.14.15-.24.25-.15.05.05.13.2.21.42.38-.41,1.23-1.75,1.5-2.38.29-.68.57-1.86.58-1.94,0-.08-.38-1.23-.53-1.61-.15-.38-.31-.47-.36-.23-.04.2-.31.75-.42.97-.01.15-.05.22-.07.28-.04.11-.14.28-.37.5-.23.22-.76-.07-.76-.07.63.04.73-.18.77-.64.04-.46-.32-2.07-.32-2.07,0,0,.58.77.69,1.4l.03.2c.12-.29.36-.74.42-.85.08-.16.23,0,.46.17.23.18.62,1.52.68,1.89.06.38-.59,2.15-.59,2.15h-.11c-.06-.05-.11-.04-.16.05-.05.09-.04.36-.04.36l-1.33,2.01h-.02c.25.71.54,1.85.54,2.11,0,.36-.07,1.39-.31,1.44-.24.05-.51.3-.73.17-.21-.13-.56-.53-.29-.47,0,0,.12.07.25.06-.4-.09-.72-.18-1.02-.29.61.25.55.24.55.24l.02.12c.05.07.33.51.5.54.17.03,1.53.12,2.24-.13.71-.25,1.37-.57,1.79-.94.42-.37.8-.56.45-.78-.35-.22-.81-.45-.77-.65.04-.2.17-.79.18-.83l.16.13-.09-.19c-.08-.1-.38-.5-.39-.59,0,0-1.61-.8-1.69-2.25.06-.3.12.08,1.17.54.03.05-.62-.22-.91-.39l-.13.09c.03.22.19.65.64,1.12.64.68.93.89.93.89l.09-.11c-.4-.64-.62-1.4-.63-1.5-.02-.2.2.04.2.04h-.02s-.1.15-.1.15c.37,1.26,1.19,1.82,1.58,2.11.19.11.38.22.48.22.22,0,.41-.56.44-.79.03-.21-.36-.78-.43-.89-.56.2-1.02-.23-1.02-.23.68.23.93.15,1.3-.12.36-.27.77-1.08.77-1.15,0-.08.09-.62.19-.96.1-.34-.09-.4-.28-.38-.18.02-.25.02-.14-.05.1-.07.38-.03.56.04.18.07.11.1-.03.35-.14.25-.17,1.01-.21,1.11-.04.1-.47,1.1-1.06,1.37.11,0,.14.06.34.38.24.4.4-.2.4-.2,0,0,.21-.8.51-1.21.3-.41.74-1.39.77-1.55.03-.16.08-.43-.08-.63-.15-.19-.44-.14-.59-.11-.15.04-1.03.66-1.29.82-.26.16-.4.06-.53,0-.13-.05-.4-.08-.64.08-.25.15-.27.12-.35.12l-.36.12v.02c-.04.1-.02.36-.03.39,0,.03-.03.15-.02.27.01.12.05.39.26.65l.06.09c-.05-.1-.09-.22-.1-.36l-.04-.3s.31,1.06.54.69c.05-.22.13-.57.12-.71,0,0,.15.44.25.64l-.19.27h-.22c-.04.08-.08.16-.1.13l-.08-.09c-.06-.05-.28-.26-.36-.41-.09-.17-.25-.45-.24-.66.02-.21.06-.5.1-.69l-.24-.34s-.46-1.16.15-2.25c.61-1.08.51-.97.95-1.52.44-.55.82-.64,1.2-1.06.39-.42.94-1.01,1.11-1.28.17-.28.78-.78.78-.78l1.56-1.3-2.25-3.91ZM129.04,31.72c.13-.37.54-.56.91-.43.16.06.25.11.33.24l.08-.15c.37-.83.54-.96.54-.96l.1.11s-.65,1.02-.77,1.26c-.13.24-.27.67-.54.7-.28.02-.63.1-.63.1,0,0,.08-.03.21-.1-.24-.18-.33-.47-.22-.77M126.87,32.01c.19-.53.78-.8,1.3-.61l.2.1c-.03-.1-.1-.18-.25-.24l-.08-.04c.08-.09.29-.17.39-.06.1.11.12.29.09.37l-.02.06c-.05.12-.15.36-.18.41-.04.06-.16.16-.16.26,0,.1.03.26.01.35-.02.1-.05.33-.09.38l-.26.28-.07.09c-.09.09-.25.15-.4-.12-.44-.23-.65-.76-.48-1.24M126.24,33.63c.04-.12.14-.21.26-.23-.11-.07-.12.02-.12.02l.11-.15.14.13.03.18c-.02.12-.06.34-.14.49l-.16.18s.04-.09.09-.21c-.16-.07-.25-.25-.19-.42M124.8,38.12c-.09.17-.2.44-.2.49-1.04-1.17.15-2.62.81-3.27-1.43,2.35-.61,2.78-.61,2.78M126.32,39.6c-.02.12-.1.13-.1.13-1.3-1.18-.54-3.47-.54-3.47-.18,1.54.09,2.67.33,3.08.24.41.35,0,.35,0,0,0,0,.13-.04.26M126.93,41.39s-.32.88-.61.49c-.29-.39-.05-1.66.26-2.22.09-.16.28-.41.5-.67-.08-.06-.08-.19-.21-.49-.08-.17-.09-.27-.09-.32-.19.16-.39.31-.48.37-.2.14-.25.11-.25.11-.46-.26.18-2.06.18-2.06-.48,2.4,1.03,1.19,1.03,1.19,0,0-.22.18-.45.36.35.89.72.24.72.24,0,0-.05.09-.12.21.49-.55,1-1.08,1-1.08-2.97,4.96-1.49,3.88-1.49,3.88M132.79,42.25v.02s.3.48.3.48c.07.09.27-.15.27-.15,0,0-.06.13-.12.25-.06.12-.1.11-.1.11l-.09-.08s-.26-.52-.27-.63"/>
      <path class="cls-6" d="M138.13,34.07l-.59-.99c-.18.13-.89.67-.9.69l-.75.66-.45.38-.31.4c.2-.14.47-.36.63-.23.22.18-.25.57-.37,1.01-.12.44-.08.94-.07,1.12.01.18.06,1.23-.41,2.84.35-.17,2.11-1.03,2.53-1.46.05-.16.14-.48.22-.74.12-.37.1-.69.1-.93s.14-.48.31-.82c.17-.34.21-.56.19-.78-.01-.16-.09-.68-.13-1.15"/>
      <path class="cls-6" d="M139.39,36.73c-.06.11-.12.21-.19.29-.32.39-.66.66-.66.66,0,0,.25-.64.44-1.06s.68-2.32.77-2.71l.02-.24-.82-1.55-.18.15-.17.1c.13.06.03,1.41,0,2.49-.03,1.07-.41,1.48-.53,1.76-.07.19-.17.51-.24.83.08-.07.7-.63.85-.91,0,0-.48,1.13-.1,1.92.38.79.48.98.17,2.08-.31,1.1-.1,1.32-.59,1.65-.49.33-2.42.91-2.5,1.34-.09.42-.7,2.56-1.53,2.5h0s-.26-.07-.54-.09c.14.02.32.05.36.07.08.03.15.09.4.05.25-.04.67-.02.77-.38.1-.36.34-1.75.48-1.81.13-.07.61-.76,1-.85.39-.09.87-.1,1.09-.15.22-.05.72-.45,1.07-.95.21-.31,1.25-1.45,2.01-2.27l-1.4-2.91Z"/>
      <path class="cls-6" d="M278.5,44.87c.04-.55-.01-1.1-.12-1.64-.06-.28-.19-.51-.44-.66l-.14-.12-.1-.08-.12.07v.22s-.06.12-.06.12l-.08-.1c-.15-.35-.22-.71-.25-1.09-.03-.3-.03-.61,0-.91l.1-.13.11-.19c-.02-.25.04-.49.05-.74.01-.31-.01-.61-.13-.89l-.02-.08c0-.14-.06-.24-.13-.34-.09-.12-.14-.25-.21-.38-.08-.17-.17-.34-.3-.48l-.06-.11c-.07-.22-.19-.41-.32-.6-.07-.1-.18-.28-.23-.39-.06-.1-.12-.2-.2-.29l-.07-.12-.1-.16c-.09-.1-.24-.09-.33.02l-.04.05h-.1s-.03-.07-.03-.07c-.05-.11-.12-.17-.25-.18-.16-.02-.21-.08-.23-.24v-.1c-.09-.25-.03-.49,0-.73l.02-.07.14-.06.1.06c.13.07.25.02.29-.12.03-.11.06-.23.12-.33v-.18c-.09-.26-.23-.49-.34-.74-.05-.11-.11-.21-.18-.3-.36-.44-.68-.92-1.04-1.36-.44-.55-.85-1.13-1.25-1.71l-.05-.06c-.15-.12-.23-.3-.34-.46l-.05-.06c-.24-.22-.44-.47-.65-.71-.09-.1-.18-.19-.31-.23l-.04.02c-.19.05-.48.69-.53,1-.06.31.84,1.45.84,1.45-.23-.06-1.07-1.1-1.22-1.29-.16-.19.29-.99.37-1.08.04-.04.18-.13.32-.2l-.24-.06c-.16-.02-.27-.1-.31-.26l-.06-.16-.07-.24c0-.1,0-.2.02-.29.1-.39,0-.76-.18-1.1l-.08-.15.02-.12.03-.03c.21-.18.11-.9.04-1.16-.23-2.17-4.44-8.75-6.96-10.1-.09-.05-.15,0-.13.09l.03.2c-.11.34-.05.71.19.97.26.27.26.56.28.85,0,.11.01.22.01.33l-.1.07c-.18-.06-.35-.14-.51-.22-.21-.11-.43-.16-.66-.19-.24-.03-.47-.06-.71-.09l-.26.02-.02.05c.08.15.19.28.3.41.15.17.3.34.43.52.08.1.15.21.21.33l.09.11.19.22c.13.23.28.44.43.65.1.14.2.28.26.46h-.01s.19.33.19.33c.71.48,3.64,3.19,5.03,4.99,0,0,1.07,1.42,1.26,2.1,0,0-.43-.82-1.27-1.83-1.39-1.66-3.48-3.89-4.36-4.15l4.97,8.67-3.22,5.64.21.08c.14.09.57.74.54,1,0,0-.45-.61-.57-.73-.05-.05-.2-.1-.34-.09l-.32.51-.15-.08c-.28.51-.73,1.4-.77,1.53-.06.17.13-.73.25-1.02.05-.13.19-.37.34-.6l-1.6-.81c.14.1.26.19.32.23l.05.03-.05-.03c-.21-.12-1-.51-1.52-.36-.7.15-1.03.37-1.15.51l-.06.1.06-.1-.18.07c-.15.19-.35.31-.59.34-.13.02-.27.04-.39.1-.14.07-.3.09-.45.09-.23,0-.47-.03-.7,0h-.1s-.1-.03-.1-.03l-.06.11.05.09c.18.3.37.6.54.9.15.27.37.45.63.61.27.16.53.33.8.49.21.13.42.27.64.4.14.08.3.12.45.16.13.03.21.09.25.22.07.2.15.4.24.59.13.27.28.52.47.74.07.08.06.09-.04.11-.1.02-.2.04-.3.06-.1.02-.16.11-.15.21.03.25.12.48.27.7.27.38.6.7.98.96.27.19.55.35.83.5.2.1.39.21.59.31.28.13.57.26.86.37l.23.11c.14.06.28.08.43.05.11-.02.21-.04.32-.07.17-.05.3.01.41.13.16.16.35.31.53.45.32.24.66.45,1.04.58l.21.13.03.12-.03.23c-.01.11-.05.22-.12.31-.08.1-.16.2-.26.28-.12.09-.2.22-.32.32l-.03.19.08.07c.16.14.32.29.49.43l.28.12c.11,0,.22.02.32.05.28.09.56.09.85.04.2-.04.4-.09.6-.16l.16-.04c.14,0,.26-.04.36-.12.17-.13.36-.24.54-.36l.11-.07h.23s.11.05.11.05c.16,0,.32.05.48.07.13.01.25.01.38,0,.18-.02.25.02.31.19.09.24.2.48.31.72l.07.19c.05.17.16.29.31.37l.16.08c.3.17.61.3.91.47.2.11.42.18.64.25.27.09.55.17.82.26.13.04.27.07.4.13.1.04.2.08.3.11.21.06.43.09.65.1.09,0,.18,0,.28.02.1,0,.19,0,.27-.08l.02-.06c-.04-.36-.08-.71-.09-1.07-.02-.29-.07-.58-.12-.86-.02-.1-.01-.19.01-.28.15-.58.25-1.17.3-1.77M277.43,44.36l-.13.37s.1-.62-.23-1.2c-.1-.17-.32-.2-.46-.06-.1.1-.2.21-.27.32,0,0,.26-.46.37-.76l.14-.03c.2.21.62.73.57,1.37M276.09,40.98l.15-.14c.14.84.24,1.86.68,1.41-.03.09-.21.39-.33.59l-.14-.03c-.09-.56-.36-1.83-.36-1.83M275.11,36.34c.04-.12.05-.28.29-.43,0,0-.18.28-.11.4.07.12,1.19,1.34,1.42,1.68.23.34.28.38.27.54,0,0-.66-.78-1.17-1.26-.51-.48-.74-.8-.69-.93M276.03,40.57l-.14.29-.05-.11.2-.18ZM275.12,40.73l-.09.09c-.03-.1-.1-.6-.1-.6.05.21.19.51.19.51M275.38,40.31s.57-.13.69,2.13c0,0-.49-1.69-.59-1.76-.1-.06-.57.62-.95.86,0,0,.82-.87.85-1.24M274.6,40.03c-.12.25-.42.6-.57.73l-.12-.03-.11-.32c-.05-.1-.21-.83-.21-.83l.38.68c.04.1.17.12.25.05l.38-.28ZM264.7,18.08c-1.31-.72-2.98-1.54-2.5-.66,0,0-.75-.74-.7-.83.05-.09,1.7.23,3.11,1.2,1.41.97,3.08,2.86,3.83,4.57,0,0-2.43-3.56-3.74-4.28M264.18,15.67c-.18-.17-.48-.04-.47.22l.02.34-.49-1.32c-.04-.16.15-.27.27-.16,1.27,1.21,5.31,5.47,6.54,9.96,0,0-1.98-5.29-5.86-9.03M269.4,29.56c.11-.14.44-.29.72.02.28.32,1.19,1.07,1.4,1.3.21.23,1.3.97,1.52,1.31.23.35,1.07,1.67,1.13,2.05.06.38-.05.88-.36,1.3-.32.41-1.14-.16-1.14-.16h0c-.19-.12-.26-.23-.32-.3-.06-.08-.21-.47-.29-.77-.04.11-.11.21-.2.29l-.14.09c.13.03.24.06.28.12.14.18.23.39.03.21-.19-.18-.31-.12-.56-.17-.12-.02-.25-.04-.43-.1-.21-.05-.43-.17-.62-.34l-.06-.04c-.6-.42-.51-1.03-.5-1.41.02-.39.3-.46.42-.6.13-.15.49-.09,1.13.29.64.38.84,1.67.96,2.11.04.17.15.33.27.46.27.18.85.33.95.29.1-.05.19-.42.32-.66.13-.25-.13-.68-.23-1-.09-.33-.59-1.11-.83-1.45-.24-.33-1.29-1.11-1.42-1.21-.14-.1-1.07-.96-1.51-1.4-.44-.44-.98.68-.95.62.03-.07.3-.7.4-.84M273.44,39.01c-.08.15-.42.43-.59.54l-.1-.05c0-.1,0-.3-.03-.4-.06-.17,0-1.06,0-1.06l.21,1.22.51-.25ZM271.94,37.77l-.25-.46c.3.42.46.49.54.51l.25-.1c-.02.09-.12.21-.19.23h-.33s-.02-.17-.02-.17ZM271.36,39.25l-.56-.04.88-.11.07.09c-.07.2-.29.73-.28.81l-.04-.17s.06-.21.09-.36c.03-.11-.05-.21-.16-.22M267.72,32.83c.11.58.39.99.68,1.36.29.37,1.17.85,1.4,1.02.23.17.71.6.73.76.01.11.15.38.23.52l.04.07.02.03-.07-.06c-.25-.14-1.4-.7-1.63.61,0,0,.03-.74.45-.93.3-.13.72-.06.99.1l-.16-.26c-.08-.18-.2-.29-.64-.64s-1.01-.63-1.55-1.13c-.53-.5-.48-1.44-.48-1.44M270.43,38.81s-.27-1.25-.36-1.36c-.09-.1-.76.05-.76.05.14-.05.56-.2.77-.28l.19.09c.14.42.17,1.47.16,1.49M268.62,35.49s.08.45.12.67c.04.22.1.58.1.58l-.34-.92-.97.47s.88-.89,1.08-.8M265.01,39.57c.05-.12.92-.29,1.46-.17.54.12.96.4.96.4,0,0-1.07-.11-1.76-.08-.68.04-.76.07-1.21.09-.08,0,.49-.12.54-.24M258.58,35.9c4.02,3.36,5.36,1.85,5.36,1.85-.14,1.01-.61,1.05-.61,1.05-3.4-.65-4.75-2.91-4.75-2.91M267.49,43.16c-3.77.15-5.29-2.74-5.29-2.74,6.11,4.25,6,.18,6,.18,0,0,.32.3.18,1.28-.13.98-.9,1.27-.9,1.27M268.15,43.93s1.88-.8,2.46-1.53c0,0,.19,0,.21-.32.02-.32.02-1.16.02-1.16l.17-.07-.02,1.43-.29.29s-1.49,1.15-2.55,1.37M270.96,43.69s-1.05.08-1.38.44c-.33.36-.62.57-.76.93,0,0-.02-.49.02-.58.04-.09.57-.79,1.16-.85.6-.07.95.07.95.07M272.48,45.31c-2.54,2.15-4.37.66-4.37.66,4.23.95,3.6-1.78,3.6-1.78.98.65.77,1.13.77,1.13M272.56,40.34l-.22-.03c-.1.08-.26.07-.48.16,0,0,.46-.32.48-.61,0,0,.21.11.34.3.13.19.11.41.16.66.05.25.11.43.19.52,0,0-.29-.14-.35-.33-.05-.17.05-.38-.13-.67M273.6,45.62c-.06.19-.31.48-.29.46l-.07-.14s.05-.07.12-.16c.06-.09.1-.33.12-.53.02-.2-.32-.95-.39-1.07-.07-.12-.48-1.54-.48-1.54,0,0,.47,1.11.56,1.36.09.25.31.67.37.85.06.17.12.58.06.77M274.05,41.51c-.16-.07-.84.48-.84.48.14-.14.53-.54.73-.75h.27c.4.4,1.02,1.6,1.03,1.62,0,0-1.02-1.29-1.18-1.36M277.9,46.55c-.01-.14.04-.34-.03-.38-.06-.03-.35.46-.45.65l.07.23c-.04.17-.18,1.36-.31,1.6l-.06.13-.19-.06s.41-1.36.38-1.66c-.04-.3-.72-.67-.93-.73-.21-.06-.76-.15-.84-.07s-.29.83-.35.94-.23.43-.27.47l-.17.21-.16-.08s.64-1.04.65-1.47c0-.15.04-.23.08-.28-.09-.2-.28-.82-.21-1.1.08-.32-.06-.62-.06-.62.17.1.2-.04.21-.03.02,0,.06.54.02.78-.03.21.14.76.18.9l.12.03c.07.03.49.05.71.09.03-.1.05-.28.1-.49.06-.28.21-.65.21-.65.05.15.2.1.2.1,0,0-.18.41-.26.6-.05.12-.09.35-.11.49.21.08.67.36.77.45l.12.12c.08-.17.25-.53.3-.61l.16-.15c0-.13-.04-.43-.12-.59-.11-.21-.13-.38-.33-.51,0,0,.09-.06.13-.18,0,0,.33.52.37.72.03.17.05.39.04.52h.1c.06.04.07.52.1.64.03.12,0,.33.03.43,0,0-.17-.29-.18-.43M278.16,45.02s.3-1.2-.24-1.96h-.19c-.07.09-.17.24-.28.43,0,0,.16-.51.21-.8l.16-.06c.23.2.66.52.59,1.78,0,0-.05.4-.26.61"/>
      <polygon class="cls-6" points="137.2 29.23 144.81 15.85 154.07 15.85 154.68 14.9 144.13 14.9 135.86 29.22 137.47 32.01 138.41 31.06 137.2 29.23"/>
      <path class="cls-6" d="M147.69,42.25c.25.4.46.83.61,1.29h6.38l-.74-1.29h-6.24Z"/>
      <path class="cls-6" d="M139.8,35.7l2.08,3.77c.24-.03.47-.04.72-.04.34,0,.67.03.99.08l-3.26-5.32-.53,1.51Z"/>
      <polygon class="cls-6" points="147.99 40.95 146.12 40.17 141.09 32.33 142.65 32.81 147.99 40.95"/>
      <path class="cls-6" d="M148.46,17.67c-.45.66-.65,1.19-1.04,1.5-2.16,1.79-3.81,3.99-5.35,6.32.21-2.61,1.13-4.88,3.19-6.76.03.27.05.45.1.89,1.01-.64,1.91-1.21,3.1-1.95"/>
      <path class="cls-6" d="M144.73,32.87c-.34-1.04-.74-2.14-1.37-3.07-.63-.93-1.5-1.71-2.26-2.56l.21,1.76c.24.74.5,1.57,1.01,2.12.67.71,1.6,1.19,2.42,1.76"/>
      <path class="cls-6" d="M254.77,41.37c1.15-1.37,2.19-2.59,3.21-3.8.29,1.93-.73,3.2-3.21,3.8"/>
      <path class="cls-6" d="M263.91,27.18c-.06,1.1,0,2.22-.2,3.28-.21,1.07-.68,2.09-1.16,3.03-.16-.95-.47-1.9-.45-2.85.02-.72.4-1.46.75-2.13.27-.52.74-.95,1.05-1.34"/>
      <path class="cls-6" d="M255.49,22.09c2.09-.14,3.35.74,4.3,2.42.3.53,1.35.63,2.18.59-.66-.79-1.33-1.57-1.98-2.38-1.25-1.57-2.79-1.84-4.5-.64"/>
      <path class="cls-6" d="M256.26,20.96c.41-.08.8-.1,1.18-.03l-1.55-2.7h-10.17l-1.04,1.04h10.61l.97,1.69Z"/>
      <path class="cls-6" d="M257.34,22.83l3.36,5.82-5.41,9.37h-3.49l-1.04,1.04h5.13l6.01-10.41-2.28-3.94c-.62-.88-1.36-1.52-2.29-1.88"/>
      <path class="cls-6" d="M261.72,39.66c-.06-.11-.18-.23-.35-.37l-1.78,3.09h-2.21c.23.35.42.74.56,1.15h2.38l1.59-2.76c-.66-.35-.02-.75-.2-1.11"/>
      <path class="cls-6" d="M259.85,14.9h-10.55l.51.86h9.27l8.16,13.36-3.23,5.59c.44.23.82.47,1.05.62l3.53-6.11-8.74-14.32Z"/>
      <path class="cls-6" d="M149.61,39.29h6.64c-.27-.03-.54-.07-.82-.11-.72-.1-1.43-.24-2.11-.51-.28-.11-.55-.24-.82-.37h-2.38l-.73-1.39-1.3-.5,1.51,2.87Z"/>
      <polygon class="cls-6" points="148.13 36.27 149.52 36.44 147.44 34.09 145.71 33.52 148.13 36.27"/>
      <path class="cls-6" d="M147.55,33.76l.42.81.03-.49-.18-.51s-.14.1-.26.19"/>
      <path class="cls-6" d="M146.9,33.76l.21.13c.05-.11.1-.22.12-.27l-.22-.13-.11.27Z"/>
      <path class="cls-6" d="M149.61,18.23l-5.54,10.53,2.33,4.42.56.35.11-.27.27-.27-.15-.28-1.32-2.51-.75-1.42,5.02-9.54h3.52c.43-.12.88-.2,1.3-.34.37-.13.71-.35,1.1-.44.21-.05.45-.08.67-.09h.21s0,0,0,0l.08-.06.09-.06h-7.49Z"/>
      <polygon class="cls-6" points="147.23 33.45 147.26 33.43 147.46 33.93 147.47 33.12 147.1 33.23 147.23 33.45"/>
    </g>
  </g>
</svg>