<?xml version="1.0" encoding="UTF-8"?>
<svg id="Layer_2" data-name="Layer 2" xmlns="http://www.w3.org/2000/svg" viewBox="0 0 21.96 16.85">
  <defs>
    <style>
      .cls-1 {
        fill: #fff;
      }

      .cls-2 {
        fill: #212829;
      }
    </style>
  </defs>
  <g id="Layer_1-2" data-name="Layer 1">
    <path class="cls-2" d="M18.39,4.48h-6.83L8.97,0H2.99L0,5.18l2.99,5.18h4.86l-.18.31,3.57,6.18h7.14l3.57-6.18-3.57-6.18ZM3.49,9.48L1.01,5.18,3.49.87h4.97l2.43,4.21-2.54,4.4H3.49ZM17.88,15.97h-6.13l-3.07-5.31.18-.31h.11l2.89-5.01h6.03l3.07,5.31-3.07,5.31Z"/>
    <g>
      <polygon class="cls-1" points="3.49 9.48 1.01 5.18 3.49 .87 8.46 .87 10.9 5.08 8.35 9.48 3.49 9.48"/>
      <polygon class="cls-1" points="17.88 15.97 11.75 15.97 8.68 10.66 8.86 10.36 8.97 10.36 11.86 5.35 17.88 5.35 20.95 10.66 17.88 15.97"/>
    </g>
  </g>
</svg>