<?xml version="1.0" encoding="UTF-8"?>
<svg id="Layer_2" data-name="Layer 2" xmlns="http://www.w3.org/2000/svg" viewBox="0 0 78.68 78.75">
  <defs>
    <style>
      .cls-1 {
        fill: #fff;
      }

      .cls-2 {
        fill: #212829;
      }
    </style>
  </defs>
  <g id="Layer_1-2" data-name="Layer 1">
    <polygon class="cls-1" points="30.37 19.02 39.34 13.84 48.31 19.02 64.22 46.57 64.22 56.93 47.81 66.4 30.87 66.4 14.47 56.93 14.47 46.57 30.37 19.02"/>
    <polygon class="cls-1" points="14.47 43.08 14.47 28.21 27.35 20.77 14.47 43.08"/>
    <polygon class="cls-1" points="32.12 16 37.26 7.09 41.42 7.09 46.57 16 39.34 11.83 32.12 16"/>
    <polygon class="cls-1" points="64.22 43.08 51.33 20.77 64.22 28.21 64.22 43.08"/>
    <polygon class="cls-1" points="65.96 57.94 65.96 57.43 65.96 49.59 75.66 66.4 51.3 66.4 65.96 57.94"/>
    <polygon class="cls-1" points="44.79 68.14 39.34 71.29 33.89 68.14 44.79 68.14"/>
    <polygon class="cls-1" points="27.38 66.4 3.02 66.4 12.72 49.59 12.72 57.94 27.38 66.4"/>
    <polygon class="cls-1" points="39.34 76.94 8.68 68.14 30.4 68.14 39.34 73.3 48.28 68.14 70 68.14 39.34 76.94"/>
    <polygon class="cls-1" points="61.93 7.09 74.76 61.34 65.96 46.1 65.96 27.2 49.59 17.75 43.44 7.09 61.93 7.09"/>
    <polygon class="cls-1" points="35.25 7.09 29.1 17.75 12.72 27.2 12.72 46.1 3.93 61.34 16.76 7.09 35.25 7.09"/>
    <path class="cls-2" d="M.9,66.59l-.9,1.55h2.36l36.98,10.61.24-.07,36.74-10.54h2.36l-.89-1.54L63.31,5.35h-20.88l-3.09-5.35-.76,1.31-2.33,4.04H15.38L.9,66.59ZM30.37,19.02l8.97-5.18,8.97,5.18,15.9,27.55v10.36l-16.4,9.47h-16.94l-16.4-9.47v-10.36l15.9-27.55ZM14.47,43.08v-14.88l12.88-7.44-12.88,22.32ZM32.12,16l5.14-8.91h4.16l5.14,8.91-7.23-4.17-7.23,4.17ZM64.22,43.08l-12.88-22.32,12.88,7.44v14.88ZM65.96,57.94v-8.35l9.7,16.81h-24.36l14.66-8.46ZM44.79,68.14l-5.45,3.15-5.45-3.15h10.9ZM27.38,66.4H3.02l9.7-16.81v8.35l14.66,8.46ZM39.34,76.94l-30.66-8.8h21.72l8.94,5.16,8.94-5.16h21.72l-30.66,8.8ZM61.93,7.09l12.83,54.25-8.8-15.24v-18.9l-16.37-9.45-6.15-10.65h18.49ZM39.34,3.49l1.07,1.86h-2.15l1.07-1.86ZM35.25,7.09l-6.15,10.65-16.37,9.45v18.9l-8.8,15.24L16.76,7.09h18.49Z"/>
  </g>
</svg>