<?xml version="1.0" encoding="UTF-8"?>
<svg id="Layer_2" data-name="Layer 2" xmlns="http://www.w3.org/2000/svg" viewBox="0 0 78.68 78.75">
  <defs>
    <style>
      .cls-1 {
        fill: #fff;
      }

      .cls-2 {
        fill: #212829;
      }
    </style>
  </defs>
  <g id="Layer_1-2" data-name="Layer 1">
    <polygon class="cls-1" points="48.31 59.73 39.34 64.91 30.37 59.73 14.47 32.18 14.47 21.83 30.87 12.36 47.81 12.36 64.22 21.83 64.22 32.18 48.31 59.73"/>
    <polygon class="cls-1" points="64.22 35.67 64.22 50.55 51.33 57.99 64.22 35.67"/>
    <polygon class="cls-1" points="46.57 62.75 41.42 71.66 37.26 71.66 32.12 62.75 39.34 66.92 46.57 62.75"/>
    <polygon class="cls-1" points="14.47 35.67 27.35 57.99 14.47 50.55 14.47 35.67"/>
    <polygon class="cls-1" points="12.72 20.82 12.72 21.32 12.72 29.16 3.02 12.36 27.38 12.36 12.72 20.82"/>
    <polygon class="cls-1" points="33.89 10.61 39.34 7.46 44.79 10.61 33.89 10.61"/>
    <polygon class="cls-1" points="51.3 12.36 75.66 12.36 65.96 29.16 65.96 20.82 51.3 12.36"/>
    <polygon class="cls-1" points="39.34 1.81 70 10.61 48.28 10.61 39.34 5.45 30.4 10.61 8.68 10.61 39.34 1.81"/>
    <polygon class="cls-1" points="16.76 71.66 3.93 17.41 12.72 32.65 12.72 51.56 29.1 61.01 35.25 71.66 16.76 71.66"/>
    <polygon class="cls-1" points="43.44 71.66 49.59 61.01 65.96 51.56 65.96 32.65 74.76 17.41 61.93 71.66 43.44 71.66"/>
    <path class="cls-2" d="M77.79,12.16l.9-1.55h-2.36L39.34,0l-.24.07L2.36,10.61H0l.89,1.54,14.49,61.25h20.88l3.09,5.35.76-1.31,2.33-4.04h20.88l14.48-61.24ZM48.31,59.73l-8.97,5.18-8.97-5.18-15.9-27.55v-10.36l16.4-9.47h16.94l16.4,9.47v10.36l-15.9,27.55ZM64.22,35.67v14.88l-12.88,7.44,12.88-22.32ZM46.57,62.75l-5.14,8.91h-4.16l-5.14-8.91,7.23,4.17,7.23-4.17ZM14.47,35.67l12.88,22.32-12.88-7.44v-14.88ZM12.72,20.82v8.35L3.02,12.36h24.36l-14.66,8.46ZM33.89,10.61l5.45-3.15,5.45,3.15h-10.9ZM51.3,12.36h24.36l-9.7,16.81v-8.35l-14.66-8.46ZM39.34,1.81l30.66,8.8h-21.72l-8.94-5.16-8.94,5.16H8.68L39.34,1.81ZM16.76,71.66L3.93,17.41l8.8,15.24v18.9l16.37,9.45,6.15,10.65h-18.49ZM39.34,75.27l-1.07-1.86h2.15l-1.07,1.86ZM43.44,71.66l6.15-10.65,16.37-9.45v-18.9l8.8-15.24-12.83,54.25h-18.49Z"/>
  </g>
</svg>