<?xml version="1.0" encoding="UTF-8"?>
<svg id="Layer_2" data-name="Layer 2" xmlns="http://www.w3.org/2000/svg" viewBox="0 0 86.05 45">
  <defs>
    <style>
      .cls-1 {
        fill: #fff;
      }

      .cls-2 {
        fill: #212829;
      }
    </style>
  </defs>
  <g id="Layer_1-2" data-name="Layer 1">
    <polygon class="cls-1" points="22.87 34.54 8.97 34.54 2.01 22.5 8.97 10.46 22.87 10.46 29.83 22.5 22.87 34.54"/>
    <polygon class="cls-1" points="72.05 43.26 48.08 43.26 36.1 22.5 48.08 1.74 72.05 1.74 84.03 22.5 72.05 43.26"/>
    <polygon class="cls-2" points="72.55 .87 72.55 0 47.08 0 34.09 22.5 47.08 45 73.06 45 86.05 22.5 73.06 0 72.55 0 72.55 .87 71.8 1.31 84.03 22.5 72.05 43.26 48.08 43.26 36.1 22.5 48.08 1.74 72.55 1.74 72.55 .87 71.8 1.31 72.55 .87"/>
    <polygon class="cls-2" points="23.38 9.58 23.38 8.71 7.96 8.71 0 22.5 7.96 36.29 23.88 36.29 31.84 22.5 23.88 8.71 23.38 8.71 23.38 9.58 22.62 10.02 29.83 22.5 22.87 34.54 8.97 34.54 2.01 22.5 8.97 10.46 23.38 10.46 23.38 9.58 22.62 10.02 23.38 9.58"/>
    <rect class="cls-2" x="30.84" y="21.63" width="4.26" height="1.74"/>
  </g>
</svg>